<svg xmlns="http://www.w3.org/2000/svg" width="24" height="24" viewBox="0 0 24 24">
  <g id="Grupo_457" data-name="Grupo 457" transform="translate(885 -4776)">
    <path id="Vector_19_" data-name="Vector (19)" d="M.214,6.53l4.762,4.762A.745.745,0,0,0,6.03,10.238L2.536,6.744h8.524a.744.744,0,1,0,0-1.488H2.536L6.03,1.762A.747.747,0,0,0,5.506.488a.721.721,0,0,0-.524.22L.22,5.47A.746.746,0,0,0,.214,6.53Z" transform="translate(-878.996 4782.512)" fill="#828282"/>
    <path id="Ellipse_7_1_" data-name="Ellipse 7 (1)" d="M23.5,12A11.5,11.5,0,1,0,12,23.5,11.5,11.5,0,0,0,23.5,12Z" transform="translate(-885 4776)" fill="none" stroke="#828282" stroke-width="1"/>
  </g>
</svg>
