<svg width="23" height="23" viewBox="0 0 23 23" fill="none" xmlns="http://www.w3.org/2000/svg">
<path d="M1 11.5C1 17.299 5.70101 22 11.5 22C17.299 22 22 17.299 22 11.5C22 5.70101 17.299 1 11.5 1C5.70101 1 1 5.70101 1 11.5Z" stroke="#B38A58" stroke-width="2"/>
<g clip-path="url(#clip0)">
<path d="M17.3604 11.0425L13.2478 6.92996C12.9959 6.67806 12.5898 6.67806 12.3379 6.92996C12.086 7.18185 12.086 7.58797 12.3379 7.83986L15.3555 10.8574L7.99403 10.8574C7.63932 10.8574 7.35144 11.1453 7.35144 11.5C7.35144 11.8547 7.63932 12.1426 7.99403 12.1426L15.3555 12.1426L12.3379 15.1602C12.086 15.4121 12.086 15.8182 12.3379 16.0701C12.4613 16.1935 12.6258 16.2603 12.7903 16.2603C12.9548 16.2603 13.1193 16.1986 13.2427 16.0701L17.3552 11.9576C17.6123 11.7005 17.6123 11.2944 17.3604 11.0425Z" fill="#B38A58"/>
<path d="M6.50841 11.5C6.50841 11.1452 6.22071 10.8575 5.86582 10.8575C5.51093 10.8575 5.22324 11.1452 5.22324 11.5C5.22324 11.8549 5.51093 12.1426 5.86582 12.1426C6.22071 12.1426 6.50841 11.8549 6.50841 11.5Z" fill="#B38A58"/>
</g>
<defs>
<clipPath id="clip0">
<rect width="13.8182" height="13.8182" fill="white" transform="translate(3.72729 18.4091) rotate(-90)"/>
</clipPath>
</defs>
</svg>
