<svg width="38" height="38" viewBox="0 0 38 38" fill="none" xmlns="http://www.w3.org/2000/svg">
<path d="M19 37.5C29.2173 37.5 37.5 29.2173 37.5 19C37.5 8.78273 29.2173 0.5 19 0.5C8.78273 0.5 0.5 8.78273 0.5 19C0.5 29.2173 8.78273 37.5 19 37.5Z" stroke="#B38A58"/>
<g clip-path="url(#clip0)">
<path d="M18.2664 9.6043L11.673 16.1977C11.2692 16.6016 11.2692 17.2527 11.673 17.6565C12.0769 18.0603 12.728 18.0603 13.1318 17.6565L17.9697 12.8186L17.9697 24.6208C17.9697 25.1895 18.4313 25.651 19 25.651C19.5686 25.651 20.0302 25.1895 20.0302 24.6208L20.0302 12.8186L24.8681 17.6565C25.2719 18.0603 25.923 18.0603 26.3269 17.6565C26.5247 17.4587 26.6318 17.195 26.6318 16.9312C26.6318 16.6675 26.5329 16.4037 26.3269 16.2059L19.7335 9.61254C19.3214 9.20045 18.6703 9.20045 18.2664 9.6043Z" fill="white"/>
<path d="M19.0001 27.0027C18.4311 27.0027 17.9698 27.464 17.9698 28.033C17.9698 28.6019 18.4311 29.0632 19.0001 29.0632C19.569 29.0632 20.0303 28.6019 20.0303 28.033C20.0303 27.464 19.569 27.0027 19.0001 27.0027Z" fill="white"/>
</g>
<defs>
<clipPath id="clip0">
<rect width="22.1538" height="22.1538" fill="white" transform="translate(30.0769 31.4615) rotate(180)"/>
</clipPath>
</defs>
</svg>
