<svg width="24" height="24" viewBox="0 0 24 24" fill="none" xmlns="http://www.w3.org/2000/svg">
<path d="M12 0.500001C5.64873 0.5 0.5 5.64873 0.499999 12C0.499998 18.3513 5.64872 23.5 12 23.5C18.3513 23.5 23.5 18.3513 23.5 12C23.5 5.64873 18.3513 0.500002 12 0.500001Z" stroke="black"/>
<g clip-path="url(#clip0)">
<path d="M11.4703 3.2143L6.70839 7.97621C6.41672 8.26787 6.41672 8.73811 6.70839 9.02978C7.00006 9.32145 7.47029 9.32145 7.76196 9.02978L11.256 5.53573L11.256 14.0595C11.256 14.4703 11.5893 14.8036 12.0001 14.8036C12.4108 14.8036 12.7441 14.4703 12.7441 14.0595L12.7441 5.53573L16.2382 9.02978C16.5298 9.32145 17.0001 9.32145 17.2917 9.02978C17.4346 8.88692 17.512 8.69645 17.512 8.50597C17.512 8.31549 17.4405 8.12502 17.2917 7.98216L12.5298 3.22026C12.2322 2.92264 11.762 2.92264 11.4703 3.2143Z" fill="black"/>
<path d="M12.0001 15.7797C11.5892 15.7797 11.2561 16.1128 11.2561 16.5238C11.2561 16.9347 11.5892 17.2678 12.0001 17.2678C12.411 17.2678 12.7441 16.9347 12.7441 16.5238C12.7441 16.1128 12.411 15.7797 12.0001 15.7797Z" fill="black"/>
</g>
<defs>
<clipPath id="clip0">
<rect width="16" height="16" fill="white" transform="translate(20 19) rotate(-180)"/>
</clipPath>
</defs>
</svg>
