<svg xmlns="http://www.w3.org/2000/svg" width="30.006" height="30.102" viewBox="0 0 30.006 30.102">
  <path id="Vector_17_" data-name="Vector (17)" d="M26.241,2.3H25.18V1.462a1.462,1.462,0,1,0-2.925,0V2.3H7.738V1.462a1.462,1.462,0,1,0-2.918,0V2.3H3.766A3.766,3.766,0,0,0,0,6.063V26.241a3.766,3.766,0,0,0,3.766,3.766H26.241a3.766,3.766,0,0,0,3.766-3.766V6.05A3.766,3.766,0,0,0,26.241,2.3Zm.835,9.113V26.241a.828.828,0,0,1-.835.835H3.766a.828.828,0,0,1-.828-.835V11.41ZM6.276,7.531A1.462,1.462,0,0,0,7.732,6.069V5.215H22.255V6.05a1.462,1.462,0,1,0,2.925,0V5.215h1.061a.835.835,0,0,1,.835.835V8.492H2.925V6.05a.835.835,0,0,1,.841-.835H4.833V6.05A1.462,1.462,0,0,0,6.276,7.531Z" transform="translate(0 0.096)"/>
</svg>
