<svg width="30" height="30" viewBox="0 0 30 30" fill="none" xmlns="http://www.w3.org/2000/svg">
<g clip-path="url(#clip0)">
<path d="M26.2406 2.29706H25.1799V1.46233C25.1799 1.07449 25.0258 0.702539 24.7516 0.428296C24.4774 0.154054 24.1054 -1.42977e-05 23.7176 -1.42977e-05C23.3297 -1.42977e-05 22.9578 0.154054 22.6835 0.428296C22.4093 0.702539 22.2552 1.07449 22.2552 1.46233V2.29706H7.73849V1.46233C7.7516 1.26265 7.72358 1.06242 7.65618 0.874007C7.58877 0.685597 7.48342 0.513025 7.34664 0.366972C7.20985 0.220919 7.04455 0.104492 6.86096 0.024898C6.67737 -0.0546962 6.47939 -0.0957642 6.27929 -0.0957642C6.07919 -0.0957642 5.88121 -0.0546962 5.69762 0.024898C5.51403 0.104492 5.34872 0.220919 5.21194 0.366972C5.07516 0.513025 4.9698 0.685597 4.9024 0.874007C4.835 1.06242 4.80698 1.26265 4.82008 1.46233V2.29706H3.76569C2.76697 2.29706 1.80915 2.6938 1.10295 3.4C0.396741 4.10621 0 5.06402 0 6.06275L0 26.2406C0 27.2393 0.396741 28.1971 1.10295 28.9033C1.80915 29.6095 2.76697 30.0063 3.76569 30.0063H26.2406C27.2393 30.0063 28.1971 29.6095 28.9033 28.9033C29.6095 28.1971 30.0063 27.2393 30.0063 26.2406V6.05019C30.003 5.05365 29.6047 4.09905 28.8989 3.39556C28.1931 2.69207 27.2371 2.29705 26.2406 2.29706ZM27.0753 11.41V26.2406C27.0761 26.3504 27.0551 26.4593 27.0135 26.561C26.9718 26.6626 26.9104 26.755 26.8327 26.8327C26.755 26.9104 26.6627 26.9718 26.561 27.0135C26.4594 27.0551 26.3504 27.0761 26.2406 27.0753H3.76569C3.65637 27.0753 3.54812 27.0537 3.4472 27.0116C3.34628 26.9696 3.25467 26.908 3.17766 26.8304C3.10064 26.7528 3.03975 26.6608 2.99849 26.5595C2.95723 26.4583 2.93641 26.3499 2.93724 26.2406V11.41H27.0753ZM6.27615 7.53137C6.6629 7.52971 7.03324 7.37491 7.30613 7.10084C7.57901 6.82678 7.73222 6.45578 7.73222 6.06902V5.21547H22.2552V6.05019C22.2552 6.43803 22.4093 6.80998 22.6835 7.08423C22.9578 7.35847 23.3297 7.51254 23.7176 7.51254C24.1054 7.51254 24.4774 7.35847 24.7516 7.08423C25.0258 6.80998 25.1799 6.43803 25.1799 6.05019V5.21547H26.2406C26.462 5.21547 26.6743 5.30341 26.8308 5.45995C26.9874 5.61649 27.0753 5.82881 27.0753 6.05019V8.49162H2.92469V6.05019C2.92468 5.94005 2.94648 5.83099 2.98882 5.7293C3.03116 5.62762 3.09321 5.53532 3.17139 5.45772C3.24956 5.38013 3.34233 5.31877 3.44433 5.2772C3.54633 5.23562 3.65555 5.21464 3.76569 5.21547H4.83264V6.05019C4.83015 6.24224 4.86551 6.43289 4.93671 6.61126C5.00791 6.78963 5.11355 6.95223 5.2476 7.08978C5.38164 7.22732 5.54147 7.33711 5.71795 7.41288C5.89443 7.48865 6.08411 7.52891 6.27615 7.53137Z" fill="black"/>
</g>
<defs>
<clipPath id="clip0">
<rect width="30" height="30" fill="white"/>
</clipPath>
</defs>
</svg>
