<svg width="32" height="32" viewBox="0 0 32 32" fill="none" xmlns="http://www.w3.org/2000/svg">
<g clip-path="url(#clip0)">
<path d="M8.34459 14.0804C8.19616 14.2266 8.07832 14.4007 7.99788 14.5926C7.91745 14.7845 7.87603 14.9905 7.87603 15.1985C7.87603 15.4065 7.91745 15.6124 7.99788 15.8043C8.07832 15.9963 8.19616 16.1703 8.34459 16.3165L13.1446 21.109C13.3137 21.2798 13.5152 21.4155 13.7373 21.508C13.9594 21.6006 14.1978 21.6483 14.4385 21.6483C14.6793 21.6483 14.9176 21.6006 15.1397 21.508C15.3619 21.4155 15.5633 21.2798 15.7325 21.109L29.3628 7.51726C29.6596 7.22045 29.8263 6.81839 29.8263 6.39922C29.8263 5.98006 29.6596 5.578 29.3628 5.28119C29.2157 5.133 29.0406 5.01536 28.8476 4.93508C28.6546 4.85479 28.4476 4.81346 28.2385 4.81346C28.0294 4.81346 27.8224 4.85479 27.6294 4.93508C27.4365 5.01536 27.2614 5.133 27.1143 5.28119L14.4416 17.918L10.587 14.0804C10.4404 13.9324 10.2659 13.8149 10.0734 13.7347C9.88092 13.6545 9.6744 13.6132 9.4658 13.6132C9.2572 13.6132 9.05068 13.6545 8.85821 13.7347C8.66574 13.8149 8.49116 13.9324 8.34459 14.0804ZM28.7991 17.4587C28.4922 20.0126 27.418 22.4143 25.7174 24.3483C24.0169 26.2824 21.7695 27.6584 19.2705 28.2957C16.7714 28.933 14.1375 28.8018 11.7146 27.9193C9.29173 27.0368 7.19311 25.4443 5.69433 23.3508C4.19556 21.2574 3.36671 18.7609 3.31661 16.1893C3.26652 13.6176 3.99753 11.0909 5.41365 8.94101C6.82978 6.79113 8.8648 5.11855 11.2515 4.1429C13.6382 3.16725 16.265 2.93415 18.787 3.4742C19.0426 3.52165 19.3059 3.50507 19.5534 3.42596C19.801 3.34684 20.0249 3.20768 20.2052 3.02094C20.4016 2.8176 20.54 2.56557 20.6059 2.29097C20.6718 2.01637 20.6629 1.7292 20.58 1.4592C20.4972 1.1892 20.3435 0.9462 20.1348 0.755378C19.9261 0.564556 19.67 0.432853 19.3931 0.373917C16.2252 -0.299405 12.927 -0.000353878 9.9329 1.2317C6.93874 2.46376 4.38893 4.57106 2.61912 7.27619C0.849317 9.98131 -0.0575049 13.1574 0.0180353 16.3865C0.0935755 19.6155 1.14794 22.746 3.04232 25.3659C4.93669 27.9858 7.58228 29.9722 10.6308 31.0637C13.6793 32.1552 16.9878 32.3006 20.1208 31.4807C23.2538 30.6608 26.0643 28.9141 28.1824 26.4705C30.3006 24.0269 31.627 21.001 31.987 17.7911C32.0162 17.5649 31.9969 17.3351 31.9302 17.117C31.8636 16.8989 31.7511 16.6974 31.6004 16.5259C31.4496 16.3544 31.264 16.2169 31.0558 16.1224C30.8477 16.028 30.6218 15.9788 30.3931 15.9781C29.9902 15.9827 29.6036 16.1371 29.3088 16.4109C29.014 16.6847 28.8323 17.0583 28.7991 17.4587Z" fill="black"/>
</g>
<defs>
<clipPath id="clip0">
<rect width="32" height="32" fill="white"/>
</clipPath>
</defs>
</svg>
