<svg width="40" height="29" viewBox="0 0 40 29" fill="none" xmlns="http://www.w3.org/2000/svg">
<path d="M10.392 11.748C11.364 7.42799 14.496 5.376 17.52 3.97199L16.548 0.839996C6.396 1.704 0.888 10.236 0.888 17.796C0.888 23.412 3.696 28.488 9.528 28.488C14.496 28.488 18.06 24.276 18.06 19.416C18.06 14.988 14.928 11.748 10.392 11.748ZM31.992 11.748C32.964 7.42799 36.096 5.376 39.12 3.97199L38.148 0.839996C27.996 1.704 22.488 10.236 22.488 17.796C22.488 23.412 25.296 28.488 31.128 28.488C36.096 28.488 39.66 24.276 39.66 19.416C39.66 14.988 36.528 11.748 31.992 11.748Z" fill="#B38A58"/>
</svg>
