<svg width="56" height="56" viewBox="0 0 56 56" fill="none" xmlns="http://www.w3.org/2000/svg">
<g clip-path="url(#clip0)">
<path opacity="0.3" d="M5.38015 10.9438L1.73291 12.8747V17.9165H54.0815L53.6524 14.4302L50.9706 11.4588L24.1527 10.9438H5.38015Z" fill="#50C9CE"/>
<path opacity="0.5" d="M47.4091 31.8618H39.6855V38.2981H47.4091V31.8618Z" fill="#50C9CE"/>
<path d="M53.652 17.3801H0.76709V24.8891H53.652V17.3801Z" fill="#50C9CE"/>
<path d="M49.4365 9.68872H5.94853C2.79475 9.68872 0.230957 12.2632 0.230957 15.417V40.5937C0.230957 43.7475 2.79475 46.3113 5.94853 46.3113H49.4257C52.5795 46.3113 55.1433 43.7475 55.1433 40.5937V15.417C55.154 12.2632 52.5902 9.68872 49.4365 9.68872ZM52.8691 40.583C52.8691 42.4709 51.3244 44.0157 49.4365 44.0157H5.94853C4.06055 44.0157 2.51584 42.4709 2.51584 40.583V15.417C2.51584 13.529 4.06055 11.9843 5.94853 11.9843H49.4257C51.3137 11.9843 52.8584 13.529 52.8584 15.417L52.8691 40.583Z" fill="#0D0056"/>
<path d="M54.0062 16.5541H1.37876C0.745861 16.5541 0.230957 17.069 0.230957 17.7019V24.5673C0.230957 25.2002 0.745861 25.7151 1.37876 25.7151H54.017C54.6499 25.7151 55.1648 25.2002 55.1648 24.5673V17.7019C55.154 17.069 54.6391 16.5541 54.0062 16.5541ZM52.8691 23.4195H2.51584V18.839H52.8584L52.8691 23.4195Z" fill="#0D0056"/>
<path d="M21.9748 32.5804H8.244C7.61109 32.5804 7.09619 33.0953 7.09619 33.7282C7.09619 34.3611 7.61109 34.8653 8.244 34.8653H21.9748C22.6077 34.8653 23.1226 34.3504 23.1226 33.7175C23.1226 33.0846 22.6077 32.5804 21.9748 32.5804Z" fill="#0D0056"/>
<path d="M21.9748 37.1503H8.244C7.61109 37.1503 7.09619 37.6652 7.09619 38.2981C7.09619 38.931 7.61109 39.4459 8.244 39.4459H21.9748C22.6077 39.4459 23.1226 38.931 23.1226 38.2981C23.1118 37.6652 22.6077 37.1503 21.9748 37.1503Z" fill="#0D0056"/>
<path d="M44.8562 30.2849H42.5714C40.6834 30.2849 39.1387 31.8296 39.1387 33.7176V36.0025C39.1387 37.8905 40.6834 39.4352 42.5714 39.4352H44.8562C46.7442 39.4352 48.2889 37.8905 48.2889 36.0025V33.7176C48.2889 31.8296 46.7442 30.2849 44.8562 30.2849ZM46.0041 36.0132C46.0041 36.6461 45.4891 37.161 44.8562 37.161H42.5714C41.9385 37.161 41.4236 36.6461 41.4236 36.0132V33.7283C41.4236 33.0954 41.9385 32.5805 42.5714 32.5805H44.8562C45.4891 32.5805 46.0041 33.0954 46.0041 33.7283V36.0132Z" fill="#0D0056"/>
</g>
<defs>
<clipPath id="clip0">
<rect width="54.9231" height="54.9231" fill="white" transform="translate(0.230957 0.538452)"/>
</clipPath>
</defs>
</svg>
