<svg xmlns="http://www.w3.org/2000/svg" width="33.294" height="33.294" viewBox="0 0 33.294 33.294">
  <g id="facebook-hover" transform="translate(-0.961 -0.805)">
    <path id="Trazado_272" data-name="Trazado 272" d="M34.255,17.452A16.647,16.647,0,1,0,17.608,34.1,16.647,16.647,0,0,0,34.255,17.452Z" fill="#b38a58"/>
    <path id="Trazado_273" data-name="Trazado 273" d="M14.846,17.535v10.2a.267.267,0,0,0,.267.26H18.9a.261.261,0,0,0,.26-.26V17.37h2.741a.26.26,0,0,0,.26-.247l.267-3.118a.267.267,0,0,0-.267-.288h-3V11.5a.946.946,0,0,1,.939-.946h2.1a.26.26,0,0,0,.267-.26V7.172a.267.267,0,0,0-.267-.267H18.65a3.811,3.811,0,0,0-3.8,3.8v3.009H12.955a.267.267,0,0,0-.267.267V17.1a.274.274,0,0,0,.267.267h1.892Z" fill="#03002b" fill-rule="evenodd"/>
  </g>
</svg>
