<svg xmlns="http://www.w3.org/2000/svg" width="33.294" height="33.294" viewBox="0 0 33.294 33.294">
  <g id="Grupo_466" data-name="Grupo 466" transform="translate(634 -5043)">
    <path id="facebook-profesor" d="M2.127,11.078V21.124a.263.263,0,0,0,.263.257H6.123a.256.256,0,0,0,.257-.257V10.916h2.7a.256.256,0,0,0,.257-.243L9.6,7.6a.263.263,0,0,0-.263-.284H6.38V5.137A.932.932,0,0,1,7.3,4.206H9.377a.257.257,0,0,0,.263-.257V.87A.263.263,0,0,0,9.377.607h-3.5A3.754,3.754,0,0,0,2.127,4.354V7.318H.263A.263.263,0,0,0,0,7.581v3.072a.27.27,0,0,0,.263.263H2.127Z" transform="translate(-622.5 5048.893)" fill="none" stroke="#03002b" stroke-width="1" fill-rule="evenodd"/>
    <path id="Trazado_274" data-name="Trazado 274" d="M17.608,1.305A16.147,16.147,0,1,1,1.461,17.452,16.147,16.147,0,0,1,17.608,1.305Z" transform="translate(-634.961 5042.195)" fill="none" stroke="#03002b" stroke-width="1"/>
  </g>
</svg>
