<svg width="35" height="35" viewBox="0 0 35 35" fill="none" xmlns="http://www.w3.org/2000/svg">
<path d="M17.6081 1.30523C26.5259 1.30523 33.7553 8.53457 33.7553 17.4524C33.7553 26.3703 26.5259 33.5996 17.6081 33.5996C8.69025 33.5996 1.46091 26.3703 1.46091 17.4524C1.46091 8.53457 8.69025 1.30523 17.6081 1.30523Z" stroke="#F2F2F2"/>
<mask id="path-2-inside-1" fill="white">
<path fill-rule="evenodd" clip-rule="evenodd" d="M14.8461 17.5346V27.7326C14.8479 27.8023 14.8768 27.8686 14.9268 27.9172C14.9767 27.9659 15.0437 27.9931 15.1134 27.9931H18.9034C18.9724 27.9931 19.0387 27.9656 19.0875 27.9168C19.1364 27.8679 19.1638 27.8017 19.1638 27.7326V17.3701H21.9052C21.972 17.3702 22.0362 17.3446 22.0847 17.2987C22.1331 17.2528 22.1621 17.19 22.1656 17.1234L22.4329 14.005C22.4358 13.9682 22.431 13.9313 22.4188 13.8964C22.4066 13.8616 22.3874 13.8296 22.3623 13.8026C22.3372 13.7755 22.3068 13.754 22.2729 13.7393C22.2391 13.7246 22.2025 13.7171 22.1656 13.7172H19.1638V11.5035C19.1638 11.2538 19.2625 11.0143 19.4384 10.8371C19.6143 10.66 19.8531 10.5595 20.1027 10.5577H22.2068C22.2415 10.5586 22.2761 10.5526 22.3085 10.5399C22.3409 10.5272 22.3704 10.5082 22.3954 10.4839C22.4203 10.4596 22.4401 10.4306 22.4536 10.3985C22.4671 10.3665 22.4741 10.3321 22.474 10.2973V7.17207C22.474 7.10118 22.4459 7.0332 22.3958 6.98307C22.3456 6.93295 22.2776 6.90479 22.2068 6.90479H18.6498C17.6415 6.9066 16.6751 7.30793 15.9622 8.02087C15.2492 8.73381 14.8479 9.70024 14.8461 10.7085V13.7172H12.9545C12.8836 13.7172 12.8156 13.7453 12.7655 13.7955C12.7154 13.8456 12.6872 13.9136 12.6872 13.9845V17.1028C12.689 17.1732 12.7177 17.2401 12.7674 17.2899C12.8172 17.3396 12.8842 17.3684 12.9545 17.3701H14.8461V17.5346Z"/>
</mask>
<path d="M14.8461 27.7326H13.8461V27.7454L13.8464 27.7583L14.8461 27.7326ZM15.1134 27.9931V26.9931H15.113L15.1134 27.9931ZM19.1638 17.3701V16.3701H18.1638V17.3701H19.1638ZM21.9052 17.3701L21.9066 16.3701H21.9052V17.3701ZM22.1656 17.1234L21.1693 17.038L21.1679 17.0543L21.167 17.0707L22.1656 17.1234ZM22.4329 14.005L23.4293 14.0904L23.43 14.082L22.4329 14.005ZM22.1656 13.7172V14.7172L22.1686 14.7172L22.1656 13.7172ZM19.1638 13.7172H18.1638V14.7172H19.1638V13.7172ZM19.1638 11.5035H20.1638V11.5035L19.1638 11.5035ZM20.1027 10.5577V9.55768L20.0955 9.55774L20.1027 10.5577ZM22.2068 10.5577L22.2331 9.55806L22.2199 9.55771H22.2068V10.5577ZM22.474 10.2973H21.474V10.2976L22.474 10.2973ZM18.6498 6.90479V5.90478L18.648 5.90479L18.6498 6.90479ZM14.8461 10.7085L13.8461 10.7067V10.7085H14.8461ZM14.8461 13.7172V14.7172H15.8461V13.7172H14.8461ZM12.9545 13.7172V12.7172V13.7172ZM12.6872 17.1028H11.6872V17.1152L11.6875 17.1275L12.6872 17.1028ZM12.9545 17.3701L12.9298 18.3698L12.9422 18.3701H12.9545V17.3701ZM14.8461 17.3701H15.8461V16.3701H14.8461V17.3701ZM13.8461 17.5346V27.7326H15.8461V17.5346H13.8461ZM13.8464 27.7583C13.8549 28.0887 13.9921 28.4028 14.2289 28.6334L15.6246 27.201C15.7615 27.3343 15.8409 27.5159 15.8458 27.707L13.8464 27.7583ZM14.2289 28.6334C14.4656 28.8641 14.7832 28.9932 15.1137 28.9931L15.113 26.9931C15.3041 26.993 15.4877 27.0676 15.6246 27.201L14.2289 28.6334ZM15.1134 28.9931H18.9034V26.9931H15.1134V28.9931ZM18.9034 28.9931C19.2376 28.9931 19.5582 28.8603 19.7946 28.6239L18.3804 27.2097C18.5191 27.071 18.7072 26.9931 18.9034 26.9931V28.9931ZM19.7946 28.6239C20.031 28.3875 20.1638 28.0669 20.1638 27.7326H18.1638C18.1638 27.5365 18.2417 27.3484 18.3804 27.2097L19.7946 28.6239ZM20.1638 27.7326V17.3701H18.1638V27.7326H20.1638ZM19.1638 18.3701H21.9052V16.3701H19.1638V18.3701ZM21.9038 18.3701C22.2269 18.3706 22.5379 18.2469 22.7724 18.0247L21.3969 16.5728C21.5346 16.4424 21.717 16.3698 21.9066 16.3701L21.9038 18.3701ZM22.7724 18.0247C23.007 17.8025 23.1472 17.4987 23.1643 17.176L21.167 17.0707C21.177 16.8814 21.2593 16.7032 21.3969 16.5728L22.7724 18.0247ZM23.162 17.2088L23.4293 14.0904L21.4366 13.9196L21.1693 17.038L23.162 17.2088ZM23.43 14.082C23.4434 13.9075 23.4206 13.7322 23.363 13.567L21.4746 14.2258C21.4413 14.1303 21.4281 14.029 21.4359 13.9281L23.43 14.082ZM23.363 13.567C23.3054 13.4018 23.2141 13.2503 23.0951 13.1221L21.6295 14.483C21.5607 14.4089 21.5079 14.3213 21.4746 14.2258L23.363 13.567ZM23.0951 13.1221C22.976 12.9939 22.8317 12.8918 22.6713 12.8221L21.8745 14.6565C21.7818 14.6162 21.6983 14.5572 21.6295 14.483L23.0951 13.1221ZM22.6713 12.8221C22.5108 12.7524 22.3376 12.7167 22.1627 12.7172L22.1686 14.7172C22.0675 14.7175 21.9673 14.6968 21.8745 14.6565L22.6713 12.8221ZM22.1656 12.7172H19.1638V14.7172H22.1656V12.7172ZM20.1638 13.7172V11.5035H18.1638V13.7172H20.1638ZM20.1638 11.5035C20.1638 11.5178 20.1581 11.5315 20.1481 11.5417L18.7287 10.1326C18.3669 10.4971 18.1638 10.9899 18.1638 11.5035L20.1638 11.5035ZM20.1481 11.5417C20.138 11.5518 20.1243 11.5576 20.11 11.5577L20.0955 9.55774C19.5819 9.56146 19.0906 9.7681 18.7287 10.1326L20.1481 11.5417ZM20.1027 11.5577H22.2068V9.55771H20.1027V11.5577ZM22.1804 11.5574C22.3487 11.5618 22.5162 11.5325 22.673 11.4711L21.9441 9.60867C22.0361 9.57266 22.1343 9.55546 22.2331 9.55806L22.1804 11.5574ZM22.673 11.4711C22.8298 11.4098 22.9726 11.3176 23.0932 11.2001L21.6975 9.76767C21.7682 9.69873 21.8521 9.64467 21.9441 9.60867L22.673 11.4711ZM23.0932 11.2001C23.2138 11.0826 23.3096 10.9422 23.375 10.7871L21.5321 10.01C21.5705 9.91902 21.6267 9.83661 21.6975 9.76767L23.0932 11.2001ZM23.375 10.7871C23.4404 10.6319 23.4741 10.4653 23.474 10.2969L21.474 10.2976C21.474 10.1988 21.4938 10.1011 21.5321 10.01L23.375 10.7871ZM23.474 10.2973V7.17207H21.474V10.2973H23.474ZM23.474 7.17207C23.474 6.83597 23.3405 6.51363 23.1029 6.27597L21.6887 7.69018C21.5512 7.55276 21.474 7.36639 21.474 7.17207H23.474ZM23.1029 6.27597C22.8652 6.03831 22.5429 5.90479 22.2068 5.90479V7.90479C22.0124 7.90479 21.8261 7.82759 21.6887 7.69018L23.1029 6.27597ZM22.2068 5.90479H18.6498V7.90479H22.2068V5.90479ZM18.648 5.90479C17.3751 5.90707 16.1551 6.41372 15.2551 7.31376L16.6693 8.72797C17.1951 8.20213 17.9079 7.90612 18.6516 7.90478L18.648 5.90479ZM15.2551 7.31376C14.355 8.21379 13.8484 9.43385 13.8461 10.7067L15.8461 10.7103C15.8474 9.96663 16.1434 9.25382 16.6693 8.72797L15.2551 7.31376ZM13.8461 10.7085V13.7172H15.8461V10.7085H13.8461ZM14.8461 12.7172H12.9545V14.7172H14.8461V12.7172ZM12.9545 12.7172C12.6184 12.7172 12.2961 12.8507 12.0584 13.0884L13.4726 14.5026C13.3352 14.64 13.1488 14.7172 12.9545 14.7172V12.7172ZM12.0584 13.0884C11.8207 13.326 11.6872 13.6484 11.6872 13.9845H13.6872C13.6872 14.1788 13.61 14.3652 13.4726 14.5026L12.0584 13.0884ZM11.6872 13.9845V17.1028H13.6872V13.9845H11.6872ZM11.6875 17.1275C11.6956 17.4544 11.8291 17.7658 12.0603 17.997L13.4745 16.5828C13.6063 16.7145 13.6823 16.8919 13.6869 17.0781L11.6875 17.1275ZM12.0603 17.997C12.2916 18.2282 12.6029 18.3617 12.9298 18.3698L12.9792 16.3704C13.1655 16.375 13.3428 16.451 13.4745 16.5828L12.0603 17.997ZM12.9545 18.3701H14.8461V16.3701H12.9545V18.3701ZM13.8461 17.3701V17.5346H15.8461V17.3701H13.8461Z" fill="#F2F2F2" mask="url(#path-2-inside-1)"/>
</svg>
