<svg xmlns="http://www.w3.org/2000/svg" width="13.813" height="19.646" viewBox="0 0 13.813 19.646">
  <g id="Grupo_467" data-name="Grupo 467" transform="translate(503 -5085)">
    <path id="Group" d="M7.824.447A6.908,6.908,0,0,1,13.7,10.985L8.217,19.82a.575.575,0,0,1-.489.272h0a.575.575,0,0,1-.489-.28L1.891,10.892A6.908,6.908,0,0,1,7.824.447ZM2.879,10.3l4.857,8.11,4.984-8.033A5.759,5.759,0,1,0,2.879,10.3Z" transform="translate(-503.917 5084.553)"/>
    <path id="Vector_5_" data-name="Vector (5)" d="M4.162.9A3.792,3.792,0,1,1,.371,4.692,3.8,3.8,0,0,1,4.162.9Zm0,6.328A2.536,2.536,0,1,0,1.63,4.692,2.538,2.538,0,0,0,4.162,7.228Z" transform="translate(-500.371 5087.1)"/>
  </g>
</svg>
