<svg width="31" height="31" viewBox="0 0 31 31" fill="none" xmlns="http://www.w3.org/2000/svg">
<path d="M21.9635 5.30676C21.8591 5.30676 21.5457 5.3593 21.2846 5.41185C19.979 5.67456 12.4067 7.19829 12.25 7.25083C12.0411 7.30337 11.8322 7.51354 11.78 7.72371L11.6756 7.88134C11.6756 7.88134 11.6234 19.4407 11.5711 19.5983C11.4667 19.8085 11.31 19.9661 11.1011 20.0186C10.9967 20.0712 10.6833 20.1237 10.37 20.1763C8.85553 20.4915 8.28108 20.7017 7.81107 21.1746C7.54996 21.4373 7.34106 21.8051 7.23662 22.2254C7.13217 22.5932 7.1844 23.1712 7.28884 23.4864C7.54996 24.222 8.07219 24.6949 8.80331 24.9051C9.48221 25.0627 10.7878 24.9051 11.4667 24.4847C11.7278 24.3271 12.0934 23.9593 12.3023 23.6966C12.3545 23.5915 12.5111 23.3288 12.5634 23.1712C12.7723 22.5932 12.7723 12.2424 12.8245 12.0847C12.8767 11.8746 13.0334 11.7169 13.2423 11.6644C13.3989 11.6118 20.7624 10.1407 20.9191 10.0881C21.1279 10.0356 21.2846 10.1407 21.3891 10.2457C21.4413 10.3508 21.598 17.4966 21.3891 17.7068C21.2324 17.8644 20.9191 17.9695 20.1879 18.1271C19.039 18.3898 18.6735 18.4949 18.2557 18.7051C17.7335 18.9678 17.4201 19.283 17.159 19.7559C17.0023 20.1237 16.9501 20.3864 16.9501 20.7017C16.9501 21.3322 17.159 21.8051 17.629 22.278C17.9423 22.5932 18.2557 22.8034 18.6735 22.8559C19.1435 22.961 20.0835 22.9085 20.7102 22.6983C21.598 22.4356 22.2769 21.7525 22.538 20.8068C22.5902 20.6491 22.5902 20.439 22.5902 20.2288C22.5902 18.1796 22.5902 5.7271 22.5902 5.62202C22.4857 5.46439 22.2246 5.30676 21.9635 5.30676Z" fill="white"/>
<path d="M15.5933 0C7.08094 0 0.1875 6.93559 0.1875 15.5C0.1875 24.0644 7.08094 31 15.5933 31C24.1056 31 30.9991 24.0644 30.9991 15.5C30.9991 6.93559 24.1056 0 15.5933 0ZM15.5933 29.6864C7.81206 29.6864 1.49308 23.3288 1.49308 15.5C1.49308 7.67119 7.81206 1.31356 15.5933 1.31356C23.3745 1.31356 29.6935 7.67119 29.6935 15.5C29.6935 23.3288 23.4267 29.6864 15.5933 29.6864Z" fill="white"/>
</svg>
