<svg width="23" height="23" viewBox="0 0 23 23" fill="none" xmlns="http://www.w3.org/2000/svg">
<path d="M16.4176 4.92152L16.4176 4.92154L9.11889 14.8216L5.56127 12.1988C5.00313 11.7873 4.21723 11.9063 3.80577 12.4643L3.80575 12.4643C3.39425 13.0224 3.51315 13.8083 4.07125 14.2198L4.07125 14.2198L8.63935 17.5875C8.63937 17.5875 8.63939 17.5876 8.63941 17.5876C9.19755 17.9991 9.98377 17.8797 10.3949 17.3221L18.4386 6.41155C18.4386 6.41154 18.4386 6.41153 18.4386 6.41153C18.8501 5.8534 18.7312 5.06747 18.1731 4.65603C17.615 4.24453 16.8291 4.36345 16.4176 4.92152Z" fill="#828282" stroke="#828282"/>
</svg>
