<svg xmlns="http://www.w3.org/2000/svg" width="33.294" height="33.294" viewBox="0 0 33.294 33.294">
  <g id="instagram-hover" transform="translate(-0.602 -0.16)">
    <path id="Trazado_289" data-name="Trazado 289" d="M17.249,33.454A16.647,16.647,0,1,0,.6,16.807,16.647,16.647,0,0,0,17.249,33.454Z" fill="#b38a58"/>
    <path id="Trazado_290" data-name="Trazado 290" d="M21.707,27.837H12.9a6.634,6.634,0,0,1-6.627-6.627V12.4A6.634,6.634,0,0,1,12.9,5.782h8.807a6.634,6.634,0,0,1,6.627,6.62v8.807a6.634,6.634,0,0,1-6.627,6.627Z" fill="#03002b"/>
    <path id="Trazado_291" data-name="Trazado 291" d="M23.146,12.306a1.3,1.3,0,1,0-1.3-1.3A1.3,1.3,0,0,0,23.146,12.306Z" fill="#b38a58"/>
    <path id="Trazado_292" data-name="Trazado 292" d="M17.352,12.255a4.82,4.82,0,1,0,3.4,1.414A4.814,4.814,0,0,0,17.352,12.255Z" fill="#b38a58"/>
  </g>
</svg>
