<svg xmlns="http://www.w3.org/2000/svg" width="33.294" height="33.294" viewBox="0 0 33.294 33.294">
  <g id="instagram" transform="translate(-0.602 -0.16)">
    <path id="Trazado_296" data-name="Trazado 296" d="M33.4,16.807A16.147,16.147,0,1,1,17.249.66,16.147,16.147,0,0,1,33.4,16.807Z" fill="none" stroke="#03002b" stroke-width="1"/>
    <path id="Trazado_297" data-name="Trazado 297" d="M23.941,11.011a.8.8,0,1,1-.8-.8A.8.8,0,0,1,23.941,11.011Z" fill="none" stroke="#03002b" stroke-width="1"/>
    <path id="Trazado_298" data-name="Trazado 298" d="M14.954,13.48a4.314,4.314,0,1,1-1.591,1.935A4.314,4.314,0,0,1,14.954,13.48Z" fill="none" stroke="#03002b" stroke-width="1"/>
    <path id="Trazado_299" data-name="Trazado 299" d="M21.706,27.337H12.9a6.134,6.134,0,0,1-6.128-6.128V12.4A6.134,6.134,0,0,1,12.9,6.282h8.806A6.134,6.134,0,0,1,27.834,12.4h0v8.805a6.134,6.134,0,0,1-6.128,6.128Z" fill="none" stroke="#03002b" stroke-width="1"/>
  </g>
</svg>
