<svg width="34" height="34" viewBox="0 0 34 34" fill="none" xmlns="http://www.w3.org/2000/svg">
<path d="M33.3966 16.8069C33.3966 25.7247 26.1672 32.954 17.2494 32.954C8.33155 32.954 1.1022 25.7247 1.1022 16.8069C1.1022 7.88901 8.33155 0.659668 17.2494 0.659668C26.1672 0.659668 33.3966 7.88901 33.3966 16.8069Z" stroke="#F2F2F2"/>
<path d="M23.9412 11.0111C23.9412 11.4504 23.5851 11.8064 23.1459 11.8064C22.7066 11.8064 22.3506 11.4504 22.3506 11.0111C22.3506 10.5719 22.7066 10.2158 23.1459 10.2158C23.5851 10.2158 23.9412 10.5719 23.9412 11.0111Z" stroke="#F2F2F2"/>
<path d="M14.9536 13.4797C15.6636 13.0064 16.4981 12.7544 17.3514 12.7554C18.4942 12.7583 19.5892 13.214 20.3968 14.0226C21.2044 14.8312 21.6587 15.927 21.6601 17.0699C21.66 17.9231 21.4069 18.7571 20.9327 19.4664C20.4585 20.176 19.7844 20.7289 18.9958 21.0552C18.2073 21.3816 17.3396 21.4667 16.5027 21.2998C15.6657 21.1329 14.8971 20.7215 14.294 20.1177C13.6909 19.5138 13.2805 18.7446 13.1146 17.9075C12.9488 17.0703 13.035 16.2028 13.3623 15.4146C13.6897 14.6265 14.2435 13.9531 14.9536 13.4797Z" stroke="#F2F2F2"/>
<path d="M21.7061 27.3368H12.9004C11.2757 27.3352 9.71799 26.689 8.56915 25.5402C7.42038 24.3914 6.77424 22.8338 6.77249 21.2092V12.4032C6.77598 10.7798 7.42285 9.22399 8.57139 8.07665C9.71998 6.92924 11.2766 6.28397 12.9001 6.28223H21.7063C23.3299 6.28397 24.8865 6.92924 26.0351 8.07665C27.1835 9.2239 27.8304 10.7796 27.834 12.4029C27.834 12.4032 27.834 12.4035 27.834 12.4038L27.834 21.209C27.8323 22.8337 27.1861 24.3913 26.0373 25.5402C24.8885 26.689 23.3308 27.3352 21.7061 27.3368Z" stroke="#F2F2F2"/>
</svg>
