<svg width="18" height="17" viewBox="0 0 18 17" fill="none" xmlns="http://www.w3.org/2000/svg">
<path d="M12.2459 16.4684H5.77853C4.48816 16.467 3.25099 15.9491 2.33861 15.0283C1.42617 14.1075 0.912981 12.859 0.911621 11.5567V5.02982C0.914286 3.72844 1.42807 2.48119 2.34035 1.5615C3.25262 0.641758 4.48903 0.124501 5.77853 0.123184H12.2459C13.5354 0.124501 14.7717 0.641758 15.684 1.5615C16.5963 2.48119 17.1101 3.72844 17.1127 5.02982V11.5567C17.1114 12.859 16.5982 14.1075 15.6858 15.0283C14.7733 15.9491 13.5362 16.467 12.2459 16.4684Z" fill="#03002B"/>
<path d="M13.3028 4.95863C13.8281 4.95863 14.254 4.52887 14.254 3.99866C14.254 3.46845 13.8281 3.03868 13.3028 3.03868C12.7775 3.03868 12.3516 3.46845 12.3516 3.99866C12.3516 4.52887 12.7775 4.95863 13.3028 4.95863Z" fill="white"/>
<path d="M9.08011 4.26786C8.29053 4.26681 7.51841 4.50222 6.86143 4.94417C6.20439 5.38618 5.69207 6.01491 5.38925 6.75078C5.08637 7.48671 5.00664 8.29673 5.16006 9.07844C5.31349 9.86008 5.69321 10.5783 6.25116 11.1421C6.80911 11.7059 7.52026 12.09 8.29461 12.2459C9.06896 12.4017 9.8717 12.3222 10.6013 12.0175C11.3308 11.7128 11.9545 11.1965 12.3933 10.534C12.832 9.87155 13.0662 9.0926 13.0662 8.29574C13.0649 7.22874 12.6447 6.20581 11.8976 5.45084C11.1505 4.69592 10.1374 4.27055 9.08011 4.26786ZM9.08011 10.8709C8.57448 10.8709 8.08011 10.7196 7.65971 10.4361C7.23925 10.1526 6.91152 9.74959 6.71801 9.27811C6.5245 8.80658 6.47387 8.28779 6.57253 7.78727C6.67118 7.28676 6.91467 6.82697 7.27226 6.46614C7.62979 6.10526 8.08539 5.85953 8.58133 5.75996C9.07728 5.6604 9.59139 5.7115 10.0586 5.90678C10.5257 6.10207 10.9251 6.43282 11.206 6.8571C11.4869 7.28143 11.6369 7.7803 11.6369 8.29064C11.6369 8.97547 11.3676 9.6323 10.8883 10.117C10.409 10.6017 9.75869 10.8747 9.08011 10.876V10.8709Z" fill="white"/>
</svg>
