<svg xmlns="http://www.w3.org/2000/svg" width="33.294" height="33.294" viewBox="0 0 33.294 33.294">
  <g id="linkedin" transform="translate(-0.104 -0.16)">
    <path id="Trazado_300" data-name="Trazado 300" d="M12.846,24.277H9.2V13.3h3.647ZM11.022,11.8A1.887,1.887,0,0,1,9,9.908a1.909,1.909,0,0,1,2.065-1.9,1.9,1.9,0,1,1,0,3.8ZM26.03,24.277H22.354V18.409c0-1.476-.525-2.484-1.845-2.484a2,2,0,0,0-1.873,1.334,2.418,2.418,0,0,0-.121.887v6.131H14.868s.05-9.934,0-10.977h3.647v1.554a3.633,3.633,0,0,1,3.292-1.809c2.4,0,4.2,1.568,4.2,4.967Z" fill="none" stroke="#000" stroke-width="1"/>
    <path id="Trazado_301" data-name="Trazado 301" d="M32.9,16.807A16.147,16.147,0,1,1,16.751.66,16.147,16.147,0,0,1,32.9,16.807Z" fill="none" stroke="#000" stroke-width="1"/>
  </g>
</svg>
