<svg xmlns="http://www.w3.org/2000/svg" width="32.294" height="32.294" viewBox="0 0 32.294 32.294">
  <g id="Grupo_469" data-name="Grupo 469" transform="translate(419 -5095)">
    <path id="Trazado_301" data-name="Trazado 301" d="M32.9,16.807A16.147,16.147,0,1,1,16.751.66,16.147,16.147,0,0,1,32.9,16.807Z" transform="translate(-419.604 5094.34)" fill="#b38a58"/>
    <path id="linkedin-profesor" d="M3.9,16.5H.2V5.371H3.9ZM2.05,3.854A1.913,1.913,0,0,1,0,1.934,1.935,1.935,0,0,1,2.093.006a1.927,1.927,0,1,1,0,3.847ZM17.26,16.5H13.534V10.549c0-1.5-.532-2.517-1.87-2.517a2.028,2.028,0,0,0-1.9,1.352,2.454,2.454,0,0,0-.122.9V16.5h-3.7S6,6.428,5.947,5.371h3.7V6.946a3.682,3.682,0,0,1,3.337-1.834c2.431,0,4.257,1.589,4.257,5.034Z" transform="translate(-411 5102)" fill="#03002b"/>
  </g>
</svg>
