<svg width="21" height="18" viewBox="0 0 21 18" fill="none" xmlns="http://www.w3.org/2000/svg">
<path d="M20.9302 2.15753C20.2576 2.46124 19.5504 2.67336 18.8262 2.78871C19.1698 2.73 19.6748 2.05478 19.8712 1.81992C20.1863 1.42426 20.4245 0.968027 20.5725 0.476818C20.5725 0.440121 20.5725 0.388746 20.5725 0.359388C20.534 0.344814 20.4918 0.344814 20.4533 0.359388C19.6604 0.806267 18.8168 1.14657 17.9425 1.37222C17.9116 1.38215 17.8787 1.38259 17.8476 1.37348C17.8165 1.36437 17.7886 1.3461 17.7672 1.32084C17.6995 1.23539 17.6244 1.15676 17.5427 1.08598C17.1812 0.759659 16.7714 0.496918 16.3294 0.308012C15.7303 0.0603337 15.0849 -0.0401037 14.4428 0.014439C13.8227 0.0541437 13.2177 0.231793 12.6684 0.535532C12.1249 0.838235 11.6473 1.25558 11.2657 1.7612C10.8496 2.27778 10.5478 2.88432 10.382 3.53732C10.2396 4.15749 10.2157 4.80103 10.3119 5.43087C10.3119 5.53362 10.3119 5.5483 10.2277 5.53363C6.77014 4.99785 3.91568 3.69879 1.5732 0.924517C1.47502 0.807088 1.41891 0.807088 1.33475 0.924517C0.317803 2.51715 0.815756 5.08592 2.08518 6.34829C2.25474 6.51928 2.43265 6.68097 2.6182 6.83269C2.03674 6.78786 1.46948 6.62324 0.94901 6.34829C0.843809 6.28224 0.794715 6.34829 0.787702 6.43636C0.774133 6.60977 0.774133 6.78405 0.787702 6.95746C0.894968 7.76682 1.20432 8.53226 1.68455 9.17655C2.16478 9.82085 2.7989 10.3212 3.52293 10.6271C3.70021 10.7088 3.88623 10.768 4.07699 10.8033C3.53678 10.9185 2.98168 10.9359 2.43585 10.8546C2.31662 10.8546 2.27454 10.8987 2.31662 11.0161C2.59825 11.7838 3.06225 12.4636 3.66479 12.9914C4.26733 13.5193 4.98852 13.8776 5.76021 14.0326C5.9145 14.0326 6.0688 14.0326 6.23011 14.0986C5.83736 14.7151 4.50481 15.1702 3.88061 15.3977C2.73793 15.8263 1.51972 15.9891 0.31079 15.8748C0.114415 15.8748 0.0793476 15.8748 0.0232404 15.8748C-0.0328669 15.8748 0.0232403 15.9628 0.0793476 16.0142C0.324817 16.183 0.570286 16.3298 0.822769 16.4766C1.58206 16.8957 2.38129 17.2303 3.20733 17.4747C7.49252 18.7077 12.3248 17.7977 15.5439 14.4509C18.0687 11.8234 18.9524 8.20515 18.9524 4.57217C18.9524 4.43272 19.1137 4.35199 19.2119 4.2786C19.8494 3.7566 20.4116 3.1411 20.8811 2.4511C20.9555 2.35072 20.9928 2.22566 20.9863 2.09881C21.0074 2.09881 21.0144 2.11349 20.9302 2.15753Z" fill="#1DA1F2"/>
</svg>
