<svg xmlns="http://www.w3.org/2000/svg" width="33.409" height="33.421" viewBox="0 0 33.409 33.421">
  <g id="Grupo_455" data-name="Grupo 455" transform="translate(889 -4706)">
    <path id="Vector_14_" data-name="Vector (14)" d="M13.934,7.071,3.625,1.115a2.233,2.233,0,0,0-2.23,0A2.188,2.188,0,0,0,.285,3.044v11.9a2.213,2.213,0,0,0,1.109,1.929,2.324,2.324,0,0,0,1.109.3,2.253,2.253,0,0,0,1.109-.3l10.309-5.956a2.188,2.188,0,0,0,1.109-1.929A2.148,2.148,0,0,0,13.934,7.071ZM12.017,9,2.926,14.257V3.743Z" transform="translate(-877.285 4714.184)"/>
    <path id="Vector_15_" data-name="Vector (15)" d="M31.456,8.657A16.7,16.7,0,0,0,.868,12.684,16.705,16.705,0,0,0,12.684,33.132,16.7,16.7,0,0,0,31.456,8.657Zm-1.23,11.888a13.7,13.7,0,0,1-25.09,3.3,13.7,13.7,0,0,1,23.728-13.7A13.567,13.567,0,0,1,30.226,20.545Z" transform="translate(-889.29 4705.71)"/>
  </g>
</svg>
