<svg xmlns="http://www.w3.org/2000/svg" width="19" height="19" viewBox="0 0 19 19">
  <g id="Grupo_445" data-name="Grupo 445" transform="translate(777 -4180)">
    <circle id="Ellipse_13" data-name="Ellipse 13" cx="9.5" cy="9.5" r="9.5" transform="translate(-777 4180)" fill="#f2f2f2"/>
    <path id="Vector" d="M10.454,1.35l0,0,0,0,0,0A1.6,1.6,0,0,0,9.4.95H1.6A1.606,1.606,0,0,0,0,2.55v3.9a1.6,1.6,0,0,0,.546,1.2h0l0,0h0a1.6,1.6,0,0,0,1.051.4H9.4a1.6,1.6,0,0,0,1.054-.4h0A1.6,1.6,0,0,0,11,6.45V2.55A1.6,1.6,0,0,0,10.454,1.35ZM5.5,5.585l-4-3.841a.8.8,0,0,1,.1-.006H9.4a.8.8,0,0,1,.1.006ZM3.235,4.5.862,6.782A.781.781,0,0,1,.788,6.45V2.55a.782.782,0,0,1,.074-.332Zm.568.546L5.227,6.415a.394.394,0,0,0,.546,0L7.2,5.046l2.3,2.21a.742.742,0,0,1-.1.006H1.6a.746.746,0,0,1-.1-.006ZM7.765,4.5l2.374-2.282a.782.782,0,0,1,.074.332v3.9a.781.781,0,0,1-.074.332Z" transform="translate(-773 4185.05)" fill="#03002b"/>
  </g>
</svg>
