<svg xmlns="http://www.w3.org/2000/svg" width="27.999" height="33.503" viewBox="0 0 27.999 33.503">
  <g id="Grupo_453" data-name="Grupo 453" transform="translate(933 -4644)">
    <path id="Vector_10_" data-name="Vector (10)" d="M7.875,19H8.1a6.288,6.288,0,0,0,2.748-.567,6.566,6.566,0,0,0,2.27-1.719C15.778,13.577,15.369,8.3,15.3,7.737c-.174-3.926-1.974-5.806-3.452-6.691A7.53,7.53,0,0,0,8.077,0h-.12A7.557,7.557,0,0,0,4.139,1.017C2.645,1.9.823,3.789.654,7.709c-.06.571-.469,5.869,2.182,9.006a6.564,6.564,0,0,0,2.28,1.723A6.286,6.286,0,0,0,7.875,19ZM8.017,3c1.931.046,4.27.937,4.445,4.88a.924.924,0,0,0,0,.154c.038.411.333,4.571-1.483,6.691a3.735,3.735,0,0,1-1.344.987A3.578,3.578,0,0,1,8.017,16v.571L7.957,16a3.606,3.606,0,0,1-1.62-.292A3.762,3.762,0,0,1,4.99,14.72C3.136,12.537,3.485,8.234,3.507,8V7.9c.185-4.269,2.858-4.909,4.434-4.909V2.417Z" transform="translate(-926.596 4644)"/>
    <path id="Vector_11_" data-name="Vector (11)" d="M27.995,9.6h0a.89.89,0,0,0,0-.12V9.4c-.038-1.349-.142-4.926-3.343-6.069l-.109-.046a17.969,17.969,0,0,1-5.257-2.5A1.4,1.4,0,0,0,18.77.52,1.366,1.366,0,0,0,18.2.491,1.389,1.389,0,0,0,17.66.7a1.459,1.459,0,0,0-.416.413,1.533,1.533,0,0,0-.227.551,1.567,1.567,0,0,0,0,.6,1.536,1.536,0,0,0,.223.553,1.462,1.462,0,0,0,.412.417,20.5,20.5,0,0,0,6.114,2.931c1.091.4,1.331,1.571,1.38,3.3v.206a13.577,13.577,0,0,1-.087,1.714A22.824,22.824,0,0,1,14,14,22.963,22.963,0,0,1,2.94,11.394,14.463,14.463,0,0,1,2.853,9.68V9.463c.049-1.754.3-2.92,1.331-3.309a20.544,20.544,0,0,0,6.179-2.926,1.464,1.464,0,0,0,.387-.422,1.535,1.535,0,0,0,.2-.545,1.562,1.562,0,0,0-.013-.585,1.528,1.528,0,0,0-.227-.534A1.428,1.428,0,0,0,9.789.536,1.383,1.383,0,0,0,8.726.783a17.807,17.807,0,0,1-5.274,2.5l-.109.034C.153,4.463.071,8.04.011,9.411a.6.6,0,0,1,0,.1v.057A11.35,11.35,0,0,0,.382,12.9a1.423,1.423,0,0,0,.545.7c.049.034,4.908,3.377,13.089,3.377a24.787,24.787,0,0,0,13.089-3.372,1.492,1.492,0,0,0,.545-.714A11.864,11.864,0,0,0,27.995,9.6Z" transform="translate(-933.003 4660.526)"/>
  </g>
</svg>
