<svg width="302" height="20" viewBox="0 0 302 20" fill="none" xmlns="http://www.w3.org/2000/svg">
<path opacity="0.3" d="M0 0H292C297.523 0 302 4.47715 302 10C302 15.5228 297.523 20 292 20H0V0Z" fill="#03002B"/>
<rect width="60" height="20" fill="#03002B"/>
<path d="M259.72 13.256C262.216 10.392 262.776 9.19202 262.776 7.89602C262.776 5.92802 261.304 4.55202 259.208 4.55202C257.08 4.55202 255.72 5.96002 255.72 7.91202V8.15202H258.008V7.94402C258.008 7.19202 258.488 6.68002 259.256 6.68002C259.976 6.68002 260.472 7.17602 260.472 7.91202C260.472 9.01602 259.896 9.84802 255.512 14.904V15.4H262.968V13.256H259.72ZM268.502 15.592C271.158 15.592 272.822 13.464 272.822 10.072C272.822 6.68002 271.174 4.56802 268.502 4.56802C265.846 4.56802 264.198 6.68002 264.198 10.072C264.198 13.464 265.862 15.592 268.502 15.592ZM268.502 13.464C267.206 13.464 266.502 12.264 266.502 10.072C266.502 7.89602 267.206 6.69602 268.502 6.69602C269.798 6.69602 270.518 7.91202 270.518 10.088C270.518 12.28 269.814 13.464 268.502 13.464ZM276.498 9.24002C278.098 9.24002 279.25 8.10402 279.25 6.53602C279.25 4.95202 278.114 3.83202 276.498 3.83202C274.882 3.83202 273.73 4.95202 273.73 6.53602C273.73 8.10402 274.882 9.24002 276.498 9.24002ZM275.346 15.464H277.794L284.594 4.18402H282.146L275.346 15.464ZM276.498 7.44802C275.97 7.44802 275.57 7.04802 275.57 6.53602C275.57 5.99202 275.97 5.60802 276.498 5.60802C277.026 5.60802 277.41 5.99202 277.41 6.53602C277.41 7.04802 277.026 7.44802 276.498 7.44802ZM283.714 15.48C285.314 15.48 286.466 14.36 286.466 12.776C286.466 11.192 285.314 10.072 283.714 10.072C282.098 10.072 280.946 11.192 280.946 12.776C280.946 14.36 282.098 15.48 283.714 15.48ZM283.714 13.688C283.186 13.688 282.802 13.304 282.802 12.776C282.802 12.248 283.186 11.864 283.714 11.864C284.242 11.864 284.626 12.248 284.626 12.776C284.626 13.304 284.242 13.688 283.714 13.688Z" fill="#F2F2F2"/>
</svg>
