<svg xmlns="http://www.w3.org/2000/svg" width="34.015" height="34.015" viewBox="0 0 34.015 34.015">
  <g id="Grupo_454" data-name="Grupo 454" transform="translate(857 -4662)">
    <path id="Vector_12_" data-name="Vector (12)" d="M10.857,10.471H3.189v-9.2a1.411,1.411,0,0,0-2.806,0V11.851a1.411,1.411,0,0,0,1.411,1.411h9.033a1.411,1.411,0,0,0,0-2.806Z" transform="translate(-841.382 4667.995)"/>
    <path id="Vector_13_" data-name="Vector (13)" d="M16.994,0A17.008,17.008,0,1,0,29.015,4.976,17.008,17.008,0,0,0,16.994,0Zm0,30.381a13.388,13.388,0,1,1,5.124-1.019A13.388,13.388,0,0,1,16.994,30.381Z" transform="translate(-856.986 4662)"/>
  </g>
</svg>
