<svg width="45" height="38" viewBox="0 0 45 38" fill="none" xmlns="http://www.w3.org/2000/svg">
<rect x="1" y="1" width="43" height="36" stroke="#03002B" stroke-width="2"/>
<path d="M16.6164 22.4676H30.3927C31.1438 22.466 31.8638 22.1666 32.3949 21.6351C32.926 21.1036 33.2252 20.3831 33.2268 19.6314V13.7678C33.2268 13.7678 33.2268 13.7678 33.2268 13.737V13.7062C33.2268 13.7062 33.2268 13.7062 33.2268 13.6692C33.2268 13.6322 33.2268 13.6692 33.2268 13.6384C33.2244 13.6282 33.2244 13.6177 33.2268 13.6075V13.5705C33.2288 13.5604 33.2288 13.5499 33.2268 13.5397H33.196H33.1652H33.1344H33.042L15.1747 10.7343V8.26806C15.1781 8.24558 15.1781 8.22272 15.1747 8.20024C15.1747 8.20024 15.1747 8.20024 15.1747 8.15708V8.11392V8.07076V8.03377V8.00294L15.1439 7.97211C15.1439 7.97211 15.1439 7.97211 15.107 7.97211H15.0638L14.9961 7.94128L10.9605 6.05459C10.8768 6.01914 10.7869 6.00059 10.696 6.00001C10.6051 5.99943 10.515 6.01683 10.4309 6.05121C10.3467 6.08558 10.2702 6.13626 10.2056 6.20032C10.1411 6.26439 10.0899 6.34058 10.0548 6.42453C9.98307 6.59461 9.98169 6.78624 10.051 6.95733C10.1203 7.12843 10.2547 7.265 10.4245 7.33705L13.7823 8.75515V23.9597C13.7837 24.6474 14.0342 25.3112 14.4874 25.8282C14.9405 26.3452 15.5656 26.6802 16.2468 26.7712C15.9894 27.2017 15.8531 27.6938 15.8524 28.1955C15.8347 28.5746 15.8939 28.9533 16.0266 29.3088C16.1593 29.6643 16.3627 29.9891 16.6245 30.2636C16.8863 30.5382 17.201 30.7567 17.5496 30.9061C17.8982 31.0554 18.2735 31.1324 18.6527 31.1324C19.0319 31.1324 19.4071 31.0554 19.7557 30.9061C20.1043 30.7567 20.4191 30.5382 20.6808 30.2636C20.9426 29.9891 21.146 29.6643 21.2787 29.3088C21.4114 28.9533 21.4707 28.5746 21.4529 28.1955C21.4587 27.7049 21.3332 27.2216 21.0894 26.7959H27.306C27.0547 27.2197 26.9207 27.7027 26.9178 28.1955C26.9141 28.7514 27.0756 29.2958 27.3817 29.7597C27.6877 30.2236 28.1246 30.5861 28.6369 30.8011C29.1492 31.0161 29.7137 31.0739 30.2589 30.9673C30.804 30.8606 31.3053 30.5943 31.6989 30.2021C32.0926 29.8099 32.3609 29.3094 32.4699 28.7644C32.5789 28.2193 32.5236 27.654 32.311 27.1405C32.0984 26.6269 31.7382 26.1881 31.276 25.8797C30.8138 25.5714 30.2704 25.4074 29.715 25.4086H16.6164C16.2324 25.4086 15.8642 25.256 15.5926 24.9842C15.3211 24.7125 15.1686 24.344 15.1686 23.9597V22.0792C15.6086 22.3338 16.1081 22.4678 16.6164 22.4676ZM20.0728 28.1955C20.0728 28.476 19.9897 28.7502 19.834 28.9834C19.6783 29.2166 19.457 29.3983 19.198 29.5057C18.9391 29.613 18.6542 29.6411 18.3793 29.5864C18.1044 29.5316 17.8519 29.3966 17.6537 29.1983C17.4556 28.9999 17.3206 28.7472 17.2659 28.4722C17.2113 28.1971 17.2393 27.9119 17.3466 27.6528C17.4538 27.3937 17.6354 27.1722 17.8685 27.0164C18.1015 26.8606 18.3755 26.7774 18.6558 26.7774C19.0316 26.7774 19.392 26.9268 19.6578 27.1927C19.9235 27.4587 20.0728 27.8194 20.0728 28.1955ZM31.1628 28.1955C31.1628 28.476 31.0797 28.7502 30.924 28.9834C30.7683 29.2166 30.547 29.3983 30.288 29.5057C30.0291 29.613 29.7442 29.6411 29.4693 29.5864C29.1944 29.5316 28.9419 29.3966 28.7437 29.1983C28.5456 28.9999 28.4106 28.7472 28.3559 28.4722C28.3013 28.1971 28.3293 27.9119 28.4366 27.6528C28.5438 27.3937 28.7254 27.1722 28.9585 27.0164C29.1915 26.8606 29.4655 26.7774 29.7458 26.7774C30.1173 26.7839 30.4714 26.9361 30.7319 27.2014C30.9923 27.4666 31.1382 27.8236 31.1382 28.1955H31.1628ZM30.3927 21.0803H16.6164C16.2324 21.0803 15.8642 20.9277 15.5926 20.6559C15.3211 20.3842 15.1686 20.0157 15.1686 19.6314V12.1278L31.8405 14.4276V19.6252C31.8405 20.0101 31.6882 20.3793 31.4168 20.652C31.1455 20.9247 30.7772 21.0787 30.3927 21.0803Z" fill="#03002B"/>
</svg>
