<svg id="boton_carrito_Hover" data-name="boton carrito Hover" xmlns="http://www.w3.org/2000/svg" width="45" height="38" viewBox="0 0 45 38">
  <rect id="Rectángulo_467" data-name="Rectángulo 467" width="45" height="38" fill="#03002b"/>
  <path id="Trazado_306" data-name="Trazado 306" d="M16.616,22.468H30.393a2.841,2.841,0,0,0,2.834-2.836V13.638a.067.067,0,0,1,0-.031v-.037a.08.08,0,0,0,0-.031h-.185L31.5,13.3,21,11.649l-5.825-.915V8.268a.227.227,0,0,0,0-.068V8l-.031-.031h-.08L15,7.941,10.96,6.055a.69.69,0,0,0-.906.37.7.7,0,0,0,.37.913l3.358,1.418v15.2a2.842,2.842,0,0,0,2.464,2.812A2.835,2.835,0,1,0,21.453,28.2a2.751,2.751,0,0,0-.364-1.4h6.217a2.776,2.776,0,0,0-.388,1.4,2.8,2.8,0,1,0,2.8-2.787h-13.1a1.448,1.448,0,0,1-1.448-1.449v-1.88A2.889,2.889,0,0,0,16.616,22.468ZM20.073,28.2a1.417,1.417,0,1,1-.415-1A1.419,1.419,0,0,1,20.073,28.2Zm11.09,0a.585.585,0,1,0-.025,0Zm-.77-7.115H16.616a1.448,1.448,0,0,1-1.448-1.449v-7.5l5.831.8,4.938.681,4.938.681.964.133v5.2a1.454,1.454,0,0,1-1.448,1.455Z" fill="#fff"/>
  <circle id="Elipse_110" data-name="Elipse 110" cx="5.5" cy="5.5" r="5.5" transform="translate(22 6)" fill="#03002b"/>
  <path id="Trazado_307" data-name="Trazado 307" d="M27.446,15.865a.459.459,0,0,1-.65,0l-2.595-2.6a.691.691,0,0,1,0-.976l.325-.326a.688.688,0,0,1,.975,0l1.62,1.623L31.5,9.2a.688.688,0,0,1,.975,0l.325.325a.691.691,0,0,1,0,.976Z" fill="#fff"/>
</svg>
