<svg width="31" height="33" viewBox="0 0 31 33" fill="none" xmlns="http://www.w3.org/2000/svg">
<path d="M8.55391 21.2898H26.3642C27.3353 21.2877 28.2661 20.9007 28.9528 20.2135C29.6394 19.5263 30.0261 18.5949 30.0283 17.6231V10.0425C30.0283 10.0425 30.0283 10.0425 30.0283 10.0026V9.96277C30.0283 9.96277 30.0283 9.96277 30.0283 9.91495C30.0283 9.86712 30.0283 9.91495 30.0283 9.87509C30.0252 9.86198 30.0252 9.84834 30.0283 9.83523V9.78741C30.0308 9.77425 30.0308 9.76071 30.0283 9.74755H29.9884H29.9486H29.9088H29.7893L6.69003 6.12068V2.93222C6.6944 2.90315 6.6944 2.8736 6.69003 2.84453C6.69003 2.84453 6.69003 2.84453 6.69003 2.78874V2.73294V2.67714V2.62931V2.58946L6.65021 2.5496C6.65021 2.5496 6.65021 2.5496 6.60242 2.5496H6.54666L6.45904 2.50975L1.2418 0.0705737C1.13357 0.0247462 1.01736 0.000768597 0.899849 1.81772e-05C0.782336 -0.000732243 0.665833 0.0217593 0.557031 0.0662009C0.44823 0.110643 0.349275 0.176158 0.265849 0.258985C0.182424 0.341812 0.116173 0.440317 0.0709021 0.548843C-0.0218835 0.768724 -0.0236682 1.01647 0.0659401 1.23767C0.155548 1.45886 0.329223 1.63543 0.548818 1.72857L4.88989 3.56194V23.2188C4.89171 24.1079 5.21556 24.9661 5.80141 25.6345C6.38727 26.3029 7.19539 26.736 8.07599 26.8536C7.7432 27.4102 7.56706 28.0464 7.56621 28.695C7.54324 29.185 7.61985 29.6747 7.79142 30.1342C7.96298 30.5938 8.22594 31.0138 8.56437 31.3687C8.90279 31.7237 9.30966 32.0062 9.76035 32.1993C10.211 32.3923 10.6962 32.4918 11.1864 32.4918C11.6767 32.4918 12.1618 32.3923 12.6125 32.1993C13.0632 32.0062 13.4701 31.7237 13.8085 31.3687C14.1469 31.0138 14.4099 30.5938 14.5814 30.1342C14.753 29.6747 14.8296 29.185 14.8066 28.695C14.8141 28.0607 14.6518 27.4359 14.3367 26.8855H22.3736C22.0488 27.4334 21.8756 28.0579 21.8718 28.695C21.8671 29.4136 22.0758 30.1175 22.4715 30.7173C22.8672 31.317 23.432 31.7856 24.0943 32.0635C24.7566 32.3415 25.4864 32.4163 26.1912 32.2784C26.896 32.1405 27.544 31.7962 28.053 31.2891C28.5619 30.7821 28.9088 30.1351 29.0497 29.4304C29.1906 28.7257 29.1191 27.995 28.8443 27.331C28.5695 26.667 28.1037 26.0997 27.5062 25.7011C26.9086 25.3024 26.2062 25.0905 25.4881 25.092H8.55391C8.05746 25.092 7.58135 24.8947 7.23032 24.5434C6.87928 24.1921 6.68207 23.7156 6.68207 23.2188V20.7876C7.25101 21.1169 7.89668 21.2901 8.55391 21.2898ZM13.0224 28.695C13.0224 29.0576 12.915 29.412 12.7137 29.7135C12.5124 30.015 12.2262 30.25 11.8915 30.3888C11.5567 30.5276 11.1884 30.5639 10.833 30.4931C10.4776 30.4224 10.1512 30.2478 9.89498 29.9914C9.63877 29.735 9.46429 29.4083 9.3936 29.0527C9.32291 28.697 9.35919 28.3284 9.49785 27.9934C9.63651 27.6584 9.87132 27.372 10.1726 27.1706C10.4739 26.9691 10.8281 26.8616 11.1904 26.8616C11.6763 26.8616 12.1423 27.0548 12.4858 27.3986C12.8294 27.7424 13.0224 28.2087 13.0224 28.695ZM27.3599 28.695C27.3599 29.0576 27.2524 29.412 27.0511 29.7135C26.8498 30.015 26.5637 30.25 26.229 30.3888C25.8942 30.5276 25.5258 30.5639 25.1705 30.4931C24.8151 30.4224 24.4887 30.2478 24.2325 29.9914C23.9762 29.735 23.8018 29.4083 23.7311 29.0527C23.6604 28.697 23.6967 28.3284 23.8353 27.9934C23.974 27.6584 24.2088 27.372 24.5101 27.1706C24.8113 26.9691 25.1655 26.8616 25.5279 26.8616C26.0082 26.87 26.466 27.0668 26.8028 27.4097C27.1395 27.7527 27.3281 28.2142 27.328 28.695H27.3599ZM26.3642 19.4963H8.55391C8.05746 19.4963 7.58135 19.2989 7.23032 18.9476C6.87928 18.5963 6.68207 18.1199 6.68207 17.6231V7.92216L28.2361 10.8954V17.6151C28.2361 18.1126 28.0391 18.5899 27.6883 18.9425C27.3375 19.295 26.8614 19.4942 26.3642 19.4963Z" fill="white"/>
</svg>
