<svg width="31" height="31" viewBox="0 0 31 31" fill="none" xmlns="http://www.w3.org/2000/svg">
<path d="M15.3013 0C6.84121 0 0 6.88305 0 15.3949C0 23.9068 6.84121 30.7898 15.3013 30.7898C23.7615 30.7898 30.6027 23.9068 30.6027 15.3949C30.6027 6.88305 23.7615 0 15.3013 0ZM21.9859 22.383C21.777 22.6983 21.4637 22.9085 21.0981 22.9085C20.9414 22.9085 20.7325 22.8559 20.5759 22.7508C17.808 21.122 14.6224 20.8593 12.4813 20.9644C10.079 21.0169 8.30346 21.5424 8.25124 21.5424C7.67678 21.7 7.10233 21.3847 6.94566 20.8068C6.78899 20.2288 7.10233 19.6508 7.67678 19.4932C7.78123 19.4932 9.66126 18.9678 12.3246 18.8627C13.8913 18.8102 15.4058 18.9153 16.8158 19.178C18.5914 19.4932 20.2103 20.1237 21.6203 20.9644C22.0903 21.2271 22.2992 21.8576 21.9859 22.383ZM23.9181 18.2847C23.7092 18.7051 23.2915 18.9153 22.8215 18.9153C22.6126 18.9153 22.4037 18.8627 22.1948 18.7576C18.957 16.8136 15.1447 16.5508 12.5857 16.6034C9.71348 16.7085 7.62456 17.2864 7.57234 17.2864C6.89344 17.4441 6.21454 17.0763 6.05787 16.3932C5.9012 15.7102 6.26676 15.0271 6.94566 14.8695C7.05011 14.8695 9.2957 14.239 12.4291 14.1339C14.2569 14.0814 16.0847 14.1864 17.7036 14.5017C19.7925 14.922 21.7248 15.6051 23.3959 16.6034C24.0748 16.9186 24.2837 17.7068 23.9181 18.2847ZM25.1193 14.6068C24.8582 14.6068 24.597 14.5542 24.3359 14.3966C16.6069 9.82542 6.52788 12.5576 6.42343 12.5576C5.58786 12.7678 4.75229 12.2949 4.5434 11.5068C4.33451 10.6661 4.80452 9.82542 5.58786 9.61525C5.69231 9.56271 8.46013 8.82712 12.3246 8.72203C14.6224 8.66949 16.7636 8.82712 18.8003 9.19491C21.4114 9.6678 23.7615 10.561 25.7982 11.7695C26.5293 12.1898 26.7904 13.1356 26.3204 13.8712C26.1637 14.3441 25.6415 14.6068 25.1193 14.6068Z" fill="white"/>
</svg>
