<svg xmlns="http://www.w3.org/2000/svg" width="27" height="27" viewBox="0 0 27 27">
  <g id="Grupo_446" data-name="Grupo 446" transform="translate(798.5 -4156.5)">
    <circle id="Ellipse_11" data-name="Ellipse 11" cx="12.5" cy="12.5" r="12.5" transform="translate(-797.5 4157.5)" fill="none" stroke="#000" stroke-width="2"/>
    <path id="Star_1" data-name="Star 1" d="M6.573,1.292a1,1,0,0,1,1.854,0L9.474,3.882a1,1,0,0,0,.857.623l2.786.2a1,1,0,0,1,.573,1.763l-2.139,1.8a1,1,0,0,0-.327,1.007l.675,2.71a1,1,0,0,1-1.5,1.09L8.03,11.588a1,1,0,0,0-1.059,0L4.6,13.067a1,1,0,0,1-1.5-1.09l.675-2.71a1,1,0,0,0-.327-1.007L1.31,6.463A1,1,0,0,1,1.883,4.7l2.786-.2a1,1,0,0,0,.857-.623Z" transform="translate(-792.951 4163.333)" fill="#b38a58"/>
  </g>
</svg>
