<svg xmlns="http://www.w3.org/2000/svg" width="33.294" height="33.294" viewBox="0 0 33.294 33.294">
  <g id="youtube" transform="translate(-0.895 -0.895)">
    <path id="Trazado_304" data-name="Trazado 304" d="M33.69,17.542A16.147,16.147,0,1,1,17.543,1.4,16.147,16.147,0,0,1,33.69,17.542Z" fill="none" stroke="#03002b" stroke-width="1"/>
    <path id="Trazado_305" data-name="Trazado 305" d="M27.576,14.877v0l.021,5.488h0a4.016,4.016,0,0,1-4.017,4.016H11.86A4.017,4.017,0,0,1,7.844,20.36h0V14.877a4.023,4.023,0,0,1,4.017-4.023h11.7a4.023,4.023,0,0,1,4.017,4.023ZM16.261,14.23h0a.742.742,0,0,0-.813.033.819.819,0,0,0-.324.669v5.257a.824.824,0,0,0,.318.666.736.736,0,0,0,.806.046h0L20.9,18.35a.808.808,0,0,0,.071-1.44h0Z" fill="none" stroke="#03002b" stroke-width="1"/>
  </g>
</svg>
