<svg xmlns="http://www.w3.org/2000/svg" width="33.294" height="33.294" viewBox="0 0 33.294 33.294">
  <g id="youtube-hover" transform="translate(-0.895 -0.895)">
    <path id="Trazado_302" data-name="Trazado 302" d="M17.543,34.189A16.647,16.647,0,1,0,.9,17.542,16.647,16.647,0,0,0,17.543,34.189Z" fill="#b38a58"/>
    <path id="Trazado_303" data-name="Trazado 303" d="M28.076,14.877a4.523,4.523,0,0,0-4.516-4.523H11.86a4.523,4.523,0,0,0-4.516,4.523V20.36a4.517,4.517,0,0,0,4.516,4.523H23.58A4.516,4.516,0,0,0,28.1,20.367ZM20.681,17.9l-4.674,2.563c-.2.11-.384-.041-.384-.274V14.932c0-.233.185-.384.391-.267l4.708,2.68a.308.308,0,0,1-.041.555Z" fill="#03002b"/>
  </g>
</svg>
