<svg width="35" height="35" viewBox="0 0 35 35" fill="none" xmlns="http://www.w3.org/2000/svg">
<path d="M33.6899 17.5422C33.6899 26.4601 26.4605 33.6894 17.5427 33.6894C8.62482 33.6894 1.39548 26.4601 1.39548 17.5422C1.39548 8.62436 8.62482 1.39502 17.5427 1.39502C26.4605 1.39502 33.6899 8.62436 33.6899 17.5422Z" stroke="#F2F2F2"/>
<path d="M27.5756 14.8768L27.5756 14.8787L27.5962 20.3665C27.5962 20.3668 27.5962 20.3671 27.5962 20.3673C27.596 21.4323 27.1728 22.4535 26.4198 23.2066C25.6666 23.9598 24.645 24.383 23.5797 24.383H11.8602C11.3323 24.383 10.8095 24.2789 10.3218 24.0767C9.83408 23.8744 9.39104 23.578 9.01799 23.2044C8.64495 22.8308 8.34923 22.3873 8.14774 21.8993C7.94625 21.4113 7.84295 20.8884 7.84376 20.3604V20.3596V14.8768C7.84375 13.8108 8.2668 12.7884 9.02 12.0341C9.77312 11.2798 10.7948 10.8552 11.8606 10.8535H23.5588C24.6246 10.8552 25.6463 11.2798 26.3994 12.0341C27.1526 12.7884 27.5756 13.8108 27.5756 14.8768ZM16.2608 14.2298L16.26 14.2294C16.0051 14.0849 15.6942 14.083 15.4472 14.2624C15.2205 14.427 15.1228 14.689 15.1228 14.9317V20.1883C15.1228 20.4319 15.2208 20.69 15.4409 20.8545C15.6796 21.0327 15.9878 21.0434 16.2471 20.9008C16.2475 20.9006 16.2478 20.9004 16.2481 20.9002L20.8993 18.3496C21.0259 18.2929 21.136 18.2044 21.2188 18.0925C21.3095 17.9697 21.3637 17.8238 21.375 17.6716C21.3862 17.5193 21.3542 17.367 21.2825 17.2323C21.2108 17.0975 21.1025 16.9858 20.9699 16.91L20.9691 16.9096L16.2608 14.2298Z" stroke="#F2F2F2"/>
</svg>
