<svg width="9" height="17" viewBox="0 0 9 17" fill="none" xmlns="http://www.w3.org/2000/svg">
<path fill-rule="evenodd" clip-rule="evenodd" d="M2.43423 8.43453V16.3536C2.43562 16.4077 2.4581 16.4592 2.49687 16.4969C2.53565 16.5347 2.58765 16.5559 2.64178 16.5558H5.58483C5.63846 16.5558 5.6899 16.5345 5.72783 16.4966C5.76575 16.4587 5.78706 16.4072 5.78706 16.3536V8.3068H7.91584C7.96769 8.30688 8.01758 8.28704 8.05521 8.25138C8.09284 8.21573 8.11535 8.16698 8.11808 8.11521L8.32563 5.69372C8.32784 5.66515 8.3241 5.63644 8.31466 5.60938C8.30523 5.58233 8.29029 5.55752 8.27079 5.53652C8.25129 5.51553 8.22766 5.49879 8.20138 5.48738C8.17509 5.47597 8.14673 5.47012 8.11808 5.4702H5.78706V3.75121C5.78706 3.55734 5.8637 3.37134 6.00029 3.23376C6.13687 3.09618 6.32231 3.01818 6.51617 3.01678H8.15001C8.17701 3.01749 8.20388 3.01278 8.22904 3.00294C8.25419 2.9931 8.27712 2.97831 8.29646 2.95946C8.31581 2.94061 8.33118 2.91808 8.34168 2.89319C8.35217 2.8683 8.35758 2.84156 8.35757 2.81454V0.387732C8.35757 0.332685 8.3357 0.279892 8.29677 0.240968C8.25785 0.202044 8.20506 0.180176 8.15001 0.180176H5.38791C4.60498 0.181583 3.85452 0.493226 3.3009 1.04684C2.74728 1.60046 2.43564 2.35093 2.43423 3.13386V5.4702H0.965368C0.910321 5.4702 0.857528 5.49207 0.818604 5.53099C0.779679 5.56992 0.757812 5.62271 0.757812 5.67776V8.09925C0.759162 8.15387 0.781462 8.20588 0.820098 8.24452C0.858734 8.28315 0.910746 8.30546 0.965368 8.3068H2.43423V8.43453Z" fill="#03002B"/>
</svg>
