<svg width="14" height="15" viewBox="0 0 14 15" fill="none" xmlns="http://www.w3.org/2000/svg">
<g clip-path="url(#clip0)">
<path d="M12.9 2.2H9.8V1.6C9.8 0.7 9.1 0 8.2 0H5.2C4.3 0 3.5 0.7 3.5 1.6V2.1H0.4C0.2 2.2 0 2.3 0 2.6C0 2.9 0.2 3 0.4 3H1.2V12.8C1.2 14 2.2 15 3.4 15H10C11.2 15 12.2 14 12.2 12.8V3H13C13.2 3 13.4 2.8 13.4 2.6C13.4 2.4 13.2 2.2 12.9 2.2ZM4.4 1.6C4.4 1.1 4.8 0.8 5.2 0.8H8.2C8.6 0.8 9 1.2 9 1.6V2.1H4.4V1.6ZM11.3 12.8C11.3 13.6 10.7 14.2 9.9 14.2H3.4C2.6 14.2 2 13.6 2 12.8V3H11.3V12.8Z" fill="#424242"/>
<path d="M6.7 12.7C6.9 12.7 7.1 12.5 7.1 12.3V4.9C7.1 4.7 6.9 4.5 6.7 4.5C6.5 4.5 6.3 4.7 6.3 4.9V12.3C6.3 12.5 6.4 12.7 6.7 12.7Z" fill="#424242"/>
<path d="M4 12.2C4.2 12.2 4.4 12 4.4 11.8V5.4C4.4 5.2 4.2 5 4 5C3.8 5 3.6 5.2 3.6 5.4V11.8C3.5 12 3.7 12.2 4 12.2Z" fill="#424242"/>
<path d="M9.4 12.2C9.6 12.2 9.8 12 9.8 11.8V5.4C9.8 5.2 9.6 5 9.4 5C9.2 4.9 9 5.1 9 5.4V11.8C9 12 9.2 12.2 9.4 12.2Z" fill="#424242"/>
</g>
<defs>
<clipPath id="clip0">
<rect width="13.3" height="15" fill="white"/>
</clipPath>
</defs>
</svg>
