<svg width="11" height="11" viewBox="0 0 11 11" fill="none" xmlns="http://www.w3.org/2000/svg">
<g clip-path="url(#clip0)">
<path d="M6.59999 8.5C4.29999 8.5 2.29999 6.6 2.29999 4.2C2.29999 1.8 4.19999 0 6.59999 0C8.99999 0 10.9 1.9 10.9 4.3C10.9 6.7 8.89999 8.5 6.59999 8.5ZM6.59999 1C4.79999 1 3.29999 2.5 3.29999 4.3C3.29999 6.1 4.79999 7.6 6.59999 7.6C8.39999 7.6 9.79999 6 9.79999 4.3C9.79999 2.6 8.39999 1 6.59999 1Z" fill="#03002B"/>
<path d="M3.39408 6.41779L-0.0545349 10.175L0.682165 10.8512L4.13078 7.09399L3.39408 6.41779Z" fill="#03002B"/>
</g>
<defs>
<clipPath id="clip0">
<rect width="10.8" height="10.8" rx="2" fill="white"/>
</clipPath>
</defs>
</svg>
