<svg width="18" height="17" viewBox="0 0 18 17" fill="none" xmlns="http://www.w3.org/2000/svg">
<path d="M4.16342 16.7149H0.532776V5.7877H4.16342V16.7149ZM2.3481 4.2973C2.08971 4.31581 1.83029 4.28069 1.58612 4.19414C1.34196 4.10759 1.11833 3.97149 0.929281 3.79438C0.740233 3.61727 0.589851 3.40299 0.487581 3.16498C0.385311 2.92697 0.333362 2.67039 0.334998 2.41135C0.335095 2.14879 0.389607 1.8891 0.495094 1.64866C0.600582 1.40822 0.754756 1.19226 0.947889 1.01439C1.14102 0.836518 1.36892 0.700606 1.61722 0.615228C1.86551 0.529849 2.1288 0.496855 2.39048 0.518328C2.64832 0.502556 2.90667 0.539725 3.14962 0.627548C3.39256 0.71537 3.61496 0.851988 3.80312 1.02899C3.99128 1.20599 4.14122 1.41963 4.24371 1.65676C4.3462 1.89389 4.39908 2.14949 4.39908 2.40781C4.39908 2.66614 4.3462 2.92174 4.24371 3.15887C4.14122 3.396 3.99128 3.60964 3.80312 3.78664C3.61496 3.96364 3.39256 4.10026 3.14962 4.18808C2.90667 4.2759 2.64832 4.31307 2.39048 4.2973H2.3481ZM17.2874 16.7149H13.6285V10.8734C13.6285 9.40421 13.1058 8.40119 11.792 8.40119C11.3823 8.40392 10.9835 8.53288 10.6498 8.77052C10.3161 9.00815 10.0638 9.34289 9.92723 9.72913C9.83264 10.0134 9.79192 10.3129 9.80715 10.6121V16.7149H6.17652C6.17652 16.7149 6.22596 6.82604 6.17652 5.7877H9.80715V7.33461C10.1375 6.76421 10.6174 6.29493 11.195 5.97748C11.7726 5.66003 12.426 5.50647 13.0846 5.53341C15.4721 5.53341 17.2662 7.09445 17.2662 10.4779L17.2874 16.7149Z" fill="#03002B"/>
</svg>
