<svg width="35" height="33" viewBox="0 0 35 33" fill="none" xmlns="http://www.w3.org/2000/svg">
<g clip-path="url(#clip0)">
<path d="M0.293841 15.532C-0.827155 18.7323 1.61924 19.7981 1.61924 19.7981C3.6728 20.826 7.36793 21.7782 12.0531 19.6972C12.2967 19.5835 12.5514 19.4948 12.8132 19.4323C12.8862 19.5136 12.9265 19.6185 12.9265 19.7271C12.9265 19.8358 12.8862 19.9406 12.8132 20.022C12.6312 20.2647 12.3342 20.6746 11.2611 21.1444C10.4393 21.5078 9.56754 21.749 8.67417 21.8602C7.13745 22.0174 5.58467 21.9042 4.08798 21.526C4.08798 21.526 3.73348 22.0557 4.26044 22.9322C4.26044 22.9322 4.93751 24.348 7.47333 24.6443C9.83029 24.9218 12.3278 24.2975 13.9726 23.1214C16.1411 21.5701 16.47 19.2652 15.5375 17.7171C15.2181 17.2063 13.9726 15.6329 10.8172 17.0581C4.13269 20.0787 0.475883 15.6486 0.293841 15.532Z" fill="white"/>
<path d="M31.867 11.0987C29.7016 6.56463 25.735 6.35652 25.5498 6.3313C24.5597 6.20833 23.9753 5.67546 23.9529 4.83044C23.9483 4.62769 23.9842 4.42602 24.0586 4.23699C24.133 4.04795 24.2444 3.87527 24.3865 3.72882C24.5286 3.58237 24.6986 3.46504 24.8867 3.38355C25.0748 3.30206 25.2773 3.258 25.4827 3.25391C26.8745 3.28595 28.242 3.62078 29.4876 4.23451C31.5547 5.17453 33.2227 6.8001 34.2016 8.82853C34.707 9.88785 34.9792 11.041 35 12.2118C35 12.2118 34.8116 14.7815 33.2818 15.6297C33.0158 14.0641 32.54 12.5404 31.867 11.0987Z" fill="white"/>
<path d="M15.6141 8.65192C15.7061 8.45282 15.8473 8.27974 16.0248 8.14861C16.2023 8.01748 16.4103 7.9325 16.6297 7.90149C14.0396 7.71546 11.9062 8.56364 9.68976 9.29515C6.25651 10.4239 3.78137 8.87579 3.78137 8.87579C2.77535 8.19788 1.94818 9.1438 1.94818 9.1438C0.967704 10.1969 2.06315 11.1807 2.06315 11.1807C3.56533 12.1686 5.33305 12.6892 7.13797 12.6752C8.23023 12.6752 9.42149 12.3788 10.7756 11.9469C12.6024 11.3636 14.343 10.7865 16.2369 10.7582C16.0973 10.489 15.9372 10.2308 15.7578 9.98567C15.6155 9.79626 15.5271 9.57268 15.5018 9.33814C15.4765 9.1036 15.5153 8.86666 15.6141 8.65192Z" fill="white"/>
<path d="M22.8032 5.52413C22.8032 4.15885 22.091 2.8724 20.6922 1.6963C18.8654 0.157606 14.854 -0.214456 12.6631 0.107157C10.0327 0.544868 7.58991 1.73427 5.63695 3.52823C3.86444 5.28765 4.27004 6.83895 4.67884 7.60515C4.99821 8.23576 5.85093 9.21321 7.87256 8.82539C8.77 8.65197 9.91016 8.23261 11.8104 7.37498C13.832 6.46374 16.7319 6.96823 16.7607 6.97454C17.1247 7.01102 17.4891 6.90971 17.7803 6.69109C18.0715 6.47247 18.2678 6.15284 18.3294 5.79683C18.3911 5.44082 18.3135 5.07497 18.1124 4.77325C17.9113 4.47153 17.6017 4.25644 17.2461 4.17146C17.0928 4.14308 13.436 3.49986 10.5776 4.78631C8.69973 5.63448 7.74162 5.95294 7.25937 6.04753C7.37027 5.85881 7.50673 5.6859 7.66497 5.53358C9.18267 4.16522 11.0677 3.25771 13.0943 2.91969C15.0105 2.64222 17.9551 3.12464 18.843 3.86561C19.568 4.47731 19.9384 5.04171 19.9416 5.53674C19.9416 6.12636 19.8331 6.92724 19.3029 7.40651C18.8302 7.83217 18.0765 7.93937 17.3867 7.93622C18.8585 8.09394 20.2926 8.49694 21.6279 9.12808C22.4507 8.1079 22.8685 6.82659 22.8032 5.52413Z" fill="white"/>
<path d="M17.7986 15.5162C17.6419 15.3833 17.5138 15.2209 17.4216 15.0384C17.3295 14.8559 17.2752 14.6571 17.2621 14.4536C17.2309 14.0598 17.1765 13.6682 17.0992 13.2807C15.3426 12.2654 13.1134 12.1487 10.7788 12.9654C6.46729 14.4631 2.96378 13.3847 1.09865 11.6348C1.09865 11.6348 0.159694 12.9149 1.09865 14.6459C2.0376 16.377 4.66604 16.7648 4.66604 16.7648C7.08512 16.9926 9.52542 16.6966 11.8168 15.8977C13.3082 15.3838 14.6496 15.4311 15.595 16.0333C16.3966 16.5409 16.8724 17.4143 16.9714 18.5557C17.195 21.0782 16.0325 22.4056 14.5634 24.102C13.6455 25.0883 12.854 26.1822 12.2064 27.3591C12.2064 27.3591 10.0858 31.5685 14.4708 32.9968C14.3909 32.9085 13.5765 31.1901 15.0329 28.7559C15.5931 27.8271 16.2343 26.9483 16.9491 26.1294C18.5875 24.2376 20.443 22.0935 20.1045 18.2846C20.0334 17.4011 19.7939 16.5389 19.3987 15.7432C19.2473 15.8122 19.0854 15.8558 18.9196 15.8725C18.5133 15.9014 18.1115 15.7736 17.7986 15.5162Z" fill="white"/>
<path d="M31.9628 13.3153C30.3915 9.14384 28.4241 7.80063 27.0317 7.40335C26.4594 7.23472 25.8545 7.20398 25.2677 7.3137C24.6809 7.42342 24.1293 7.67041 23.6591 8.03396C23.106 8.4329 22.6902 8.98978 22.4678 9.62941C23.3387 10.1711 24.0885 10.8824 24.6715 11.7199C24.8142 11.9249 24.8996 12.1634 24.9193 12.4114C24.9389 12.6594 24.892 12.9081 24.7833 13.1325C24.6458 13.4114 24.4221 13.6399 24.1445 13.7852C24.3362 14.1951 24.5374 14.6964 24.8216 15.4657C25.465 17.1568 25.6724 18.9793 25.4252 20.7692C25.2719 21.8539 24.7066 22.7619 24.3106 23.443C26.5654 23.2475 28.686 21.9232 28.6605 19.4859C28.6605 18.3098 28.7052 17.3324 27.8652 14.6617C27.461 13.4137 26.9078 12.2177 26.2173 11.0987C26.0767 10.8654 25.8979 10.5753 25.7861 10.3515C25.8098 10.3116 25.8416 10.277 25.8795 10.2498C25.9175 10.2227 25.9607 10.2036 26.0065 10.1938C26.1464 10.1689 26.2907 10.1923 26.4153 10.26C27.0955 10.5753 28.0377 11.7483 29.0373 14.3969C29.5068 15.6581 30.1168 18.7355 29.5579 20.0881C29.5579 20.0881 31.752 19.1201 32.3109 16.9098C32.5057 16.172 32.7101 15.3018 31.9628 13.3153Z" fill="white"/>
<path d="M24.3554 18.4643C23.8955 14.8194 22.4168 13.3658 21.9154 12.9717L23.4643 12.9906C23.5529 12.9917 23.6402 12.9689 23.7166 12.9246C23.793 12.8802 23.8557 12.8161 23.8978 12.7391C23.9399 12.6621 23.9599 12.5752 23.9555 12.4878C23.9512 12.4004 23.9227 12.3159 23.8731 12.2433C22.0591 9.60419 18.4821 8.98304 16.8469 8.838C16.7777 8.83237 16.7084 8.84654 16.6472 8.87883C16.586 8.91113 16.5355 8.96016 16.5018 9.02006C16.4681 9.07995 16.4526 9.14818 16.4571 9.21655C16.4617 9.28492 16.4862 9.35054 16.5275 9.40555C17.722 11.0073 18.1244 13.2618 18.217 14.3905C18.2228 14.5013 18.2613 14.608 18.3278 14.6974C18.3943 14.7867 18.4859 14.8549 18.5912 14.8935C18.6965 14.9321 18.811 14.9393 18.9204 14.9144C19.0299 14.8895 19.1295 14.8334 19.2071 14.7532L19.6797 14.2203C20.2291 15.0622 20.9572 16.5409 21.1361 19.1738C21.2821 20.9214 20.7641 22.6602 19.6829 24.0515C20.225 24.3952 20.8705 24.5436 21.5105 24.4718C22.1506 24.4 22.7459 24.1124 23.196 23.6574C24.1801 22.1112 24.5899 20.2757 24.3554 18.4643Z" fill="white"/>
</g>
<defs>
<clipPath id="clip0">
<rect width="35" height="33" fill="white"/>
</clipPath>
</defs>
</svg>
