<svg width="19" height="15" viewBox="0 0 19 15" fill="none" xmlns="http://www.w3.org/2000/svg">
<path d="M18.5659 2.07684C17.9979 2.31905 17.4008 2.48822 16.7892 2.58021C17.0794 2.53339 17.5058 1.9949 17.6717 1.80759C17.9377 1.49206 18.1389 1.12821 18.2639 0.736466C18.2639 0.7072 18.2639 0.666228 18.2639 0.642815C18.2313 0.631192 18.1957 0.631192 18.1632 0.642815C17.4937 0.999203 16.7813 1.2706 16.043 1.45055C16.017 1.45847 15.9892 1.45882 15.9629 1.45156C15.9367 1.44429 15.9131 1.42972 15.895 1.40958C15.8379 1.34143 15.7744 1.27872 15.7055 1.22228C15.4002 0.962033 15.0542 0.752495 14.6809 0.601843C14.175 0.404318 13.63 0.324218 13.0878 0.367716C12.5642 0.399381 12.0534 0.541057 11.5895 0.783291C11.1306 1.0247 10.7273 1.35753 10.4051 1.76077C10.0537 2.17274 9.79883 2.65646 9.65886 3.17723C9.53857 3.67182 9.51844 4.18504 9.59964 4.68735C9.59964 4.76929 9.59964 4.781 9.52857 4.7693C6.60891 4.34201 4.19856 3.306 2.22053 1.09351C2.13762 0.999858 2.09024 0.999858 2.01917 1.09351C1.16045 2.36364 1.58093 4.41225 2.65285 5.419C2.79603 5.55536 2.94626 5.68431 3.10294 5.80531C2.61195 5.76956 2.13295 5.63827 1.69345 5.419C1.60462 5.36632 1.56316 5.419 1.55724 5.48923C1.54578 5.62753 1.54578 5.76651 1.55724 5.90481C1.64782 6.55028 1.90904 7.16072 2.31455 7.67455C2.72007 8.18838 3.25553 8.58741 3.86691 8.83139C4.01661 8.89656 4.17369 8.94372 4.33477 8.97187C3.87861 9.06378 3.40987 9.07764 2.94897 9.01284C2.84829 9.01284 2.81275 9.04796 2.84829 9.14161C3.08609 9.75383 3.47791 10.296 3.9867 10.7169C4.4955 11.1379 5.10448 11.4236 5.75611 11.5473C5.8864 11.5473 6.01669 11.5473 6.1529 11.5999C5.82125 12.0916 4.69603 12.4545 4.16895 12.6359C3.20405 12.9777 2.17537 13.1076 1.15453 13.0164C0.988703 13.0164 0.959092 13.0164 0.911714 13.0164C0.864337 13.0164 0.911714 13.0866 0.959092 13.1276C1.16637 13.2622 1.37365 13.3793 1.58685 13.4964C2.22801 13.8306 2.90289 14.0974 3.60041 14.2924C7.2189 15.2757 11.2993 14.5499 14.0176 11.8809C16.1496 9.78545 16.8958 6.89985 16.8958 4.00253C16.8958 3.89132 17.0321 3.82694 17.115 3.7684C17.6533 3.35211 18.128 2.86124 18.5245 2.31097C18.5873 2.23091 18.6188 2.13117 18.6133 2.03001C18.6311 2.03001 18.637 2.04172 18.5659 2.07684Z" fill="#03002B"/>
</svg>
