<svg width="24" height="17" viewBox="0 0 24 17" fill="none" xmlns="http://www.w3.org/2000/svg">
<path d="M23.9765 5.351C23.9765 4.02758 23.4346 2.75829 22.4699 1.82184C21.505 0.88531 20.1962 0.358164 18.8308 0.356201H5.50195C4.13647 0.358164 2.8277 0.88531 1.86293 1.82184C0.898161 2.75829 0.356207 4.02758 0.356207 5.351V11.4053C0.355194 12.0609 0.487582 12.7102 0.745691 13.3162C1.0038 13.9221 1.38265 14.4728 1.86065 14.9367C2.33856 15.4006 2.90617 15.7686 3.53098 16.0198C4.1558 16.2708 4.8255 16.4001 5.50195 16.4001H18.8542C20.2189 16.4001 21.5278 15.8747 22.4928 14.9394C23.4578 14.0041 23.9999 12.7355 23.9999 11.4129L23.9765 5.351ZM15.5513 8.68839L10.226 11.5188C9.99951 11.6399 9.78873 11.4734 9.78873 11.2161V5.41152C9.78873 5.15424 9.99951 4.98774 10.2338 5.11638L15.5981 8.07546C15.6557 8.10735 15.7028 8.15438 15.734 8.21121C15.7652 8.26797 15.7791 8.33208 15.7742 8.39628C15.7693 8.46039 15.7458 8.52189 15.7063 8.57357C15.6669 8.62526 15.6131 8.66508 15.5513 8.68839Z" fill="#03002B"/>
</svg>
