<?xml version="1.0" standalone="no"?>
<!DOCTYPE svg PUBLIC "-//W3C//DTD SVG 20010904//EN"
 "http://www.w3.org/TR/2001/REC-SVG-20010904/DTD/svg10.dtd">
<svg version="1.0" xmlns="http://www.w3.org/2000/svg"
 width="288.000000pt" height="288.000000pt" viewBox="0 0 288.000000 288.000000"
 preserveAspectRatio="xMidYMid meet">
<metadata>
Created by potrace 1.11, written by Peter Selinger 2001-2013
</metadata>
<g transform="translate(0.000000,288.000000) scale(0.100000,-0.100000)"
fill="#000000" stroke="none">
<path d="M1347 2874 c-1 -1 -31 -4 -67 -8 -337 -32 -673 -206 -905 -467 -107
-119 -155 -192 -225 -334 -309 -635 -107 -1402 476 -1805 130 -90 350 -189
474 -214 102 -20 131 -25 180 -32 166 -21 397 -1 568 51 370 112 675 360 858
700 78 145 146 359 160 507 9 83 9 281 0 338 -4 25 -8 59 -10 75 -2 17 -9 50
-16 75 -7 25 -13 52 -15 60 -9 46 -60 181 -96 253 -218 434 -639 735 -1107
793 -45 5 -270 12 -275 8z m283 -37 c8 -3 33 -8 55 -11 63 -8 188 -44 271 -76
284 -113 528 -320 690 -585 247 -402 267 -923 53 -1348 -138 -275 -355 -495
-614 -625 -120 -59 -144 -70 -215 -91 -160 -49 -266 -65 -425 -65 -138 0 -213
8 -341 40 -319 78 -573 249 -804 540 -66 83 -156 261 -198 394 -115 355 -82
751 92 1080 72 137 179 280 276 367 19 17 55 50 80 72 25 22 48 41 52 41 4 0
13 6 20 13 48 47 327 188 399 202 12 3 45 11 73 19 112 33 218 44 386 41 74
-2 142 -5 150 -8z"/>
<path d="M1350 2789 c0 -5 5 -7 10 -4 6 3 10 8 10 11 0 2 -4 4 -10 4 -5 0 -10
-5 -10 -11z"/>
<path d="M1405 2790 c3 -5 8 -10 11 -10 2 0 4 5 4 10 0 6 -5 10 -11 10 -5 0
-7 -4 -4 -10z"/>
<path d="M1465 2790 c3 -5 8 -10 11 -10 2 0 4 5 4 10 0 6 -5 10 -11 10 -5 0
-7 -4 -4 -10z"/>
<path d="M1515 2790 c3 -5 11 -10 16 -10 6 0 7 5 4 10 -3 6 -11 10 -16 10 -6
0 -7 -4 -4 -10z"/>
<path d="M1575 2790 c-3 -5 -1 -10 4 -10 6 0 11 5 11 10 0 6 -2 10 -4 10 -3 0
-8 -4 -11 -10z"/>
<path d="M1240 2780 c0 -5 5 -10 10 -10 6 0 10 5 10 10 0 6 -4 10 -10 10 -5 0
-10 -4 -10 -10z"/>
<path d="M1298 2783 c7 -3 16 -2 19 1 4 3 -2 6 -13 5 -11 0 -14 -3 -6 -6z"/>
<path d="M1625 2780 c-3 -5 1 -10 10 -10 9 0 13 5 10 10 -3 6 -8 10 -10 10 -2
0 -7 -4 -10 -10z"/>
<path d="M1185 2770 c-3 -5 -2 -10 4 -10 5 0 13 5 16 10 3 6 2 10 -4 10 -5 0
-13 -4 -16 -10z"/>
<path d="M1680 2770 c0 -5 5 -10 10 -10 6 0 10 5 10 10 0 6 -4 10 -10 10 -5 0
-10 -4 -10 -10z"/>
<path d="M1130 2760 c0 -5 5 -10 10 -10 6 0 10 5 10 10 0 6 -4 10 -10 10 -5 0
-10 -4 -10 -10z"/>
<path d="M1735 2760 c-3 -5 -1 -10 4 -10 6 0 11 5 11 10 0 6 -2 10 -4 10 -3 0
-8 -4 -11 -10z"/>
<path d="M1080 2739 c0 -5 5 -7 10 -4 6 3 10 8 10 11 0 2 -4 4 -10 4 -5 0 -10
-5 -10 -11z"/>
<path d="M1788 2743 c7 -3 16 -2 19 1 4 3 -2 6 -13 5 -11 0 -14 -3 -6 -6z"/>
<path d="M1025 2730 c-3 -5 -2 -10 4 -10 5 0 13 5 16 10 3 6 2 10 -4 10 -5 0
-13 -4 -16 -10z"/>
<path d="M1255 2725 c-175 -27 -322 -79 -471 -166 -110 -65 -174 -116 -274
-218 -193 -197 -331 -483 -358 -741 -56 -535 193 -1026 653 -1289 118 -68 277
-126 400 -145 17 -3 44 -8 60 -11 60 -13 255 -12 349 1 127 18 201 38 321 87
167 68 298 157 435 297 295 300 419 712 345 1145 -12 70 -55 207 -86 273 -16
35 -29 65 -29 67 0 11 -79 138 -119 190 -173 230 -416 397 -681 472 -47 13
-98 26 -115 28 -16 3 -41 7 -55 11 -50 11 -297 10 -375 -1z m380 -19 c17 -4
41 -9 55 -12 14 -3 36 -8 50 -11 106 -19 385 -145 430 -193 3 -3 31 -24 62
-48 135 -103 279 -281 354 -437 90 -188 127 -344 128 -540 1 -160 -6 -225 -34
-335 -130 -506 -576 -902 -1080 -957 -77 -9 -254 -8 -319 0 -178 24 -313 70
-491 168 -30 17 -114 75 -150 103 -53 44 -210 208 -225 236 -9 17 -20 30 -25
30 -6 0 -10 5 -10 11 0 6 -9 23 -20 39 -59 83 -146 298 -171 420 -32 162 -32
379 1 525 54 243 176 464 354 640 56 56 116 110 134 120 17 11 32 23 32 27 0
4 5 8 11 8 6 0 30 13 53 29 112 78 354 165 491 177 27 3 51 7 53 9 6 5 282 -3
317 -9z"/>
<path d="M1425 2533 c-40 -22 -54 -42 -55 -76 0 -39 15 -64 49 -82 128 -65
249 67 139 153 -27 21 -99 24 -133 5z m85 -43 c18 0 38 -31 33 -50 -7 -27 -61
-42 -88 -25 -30 19 -32 63 -3 74 13 6 29 8 36 5 8 -2 17 -4 22 -4z"/>
<path d="M1266 2533 c-1 -1 -20 -5 -42 -8 -59 -9 -73 -15 -69 -28 2 -7 6 -28
9 -47 18 -115 21 -122 48 -118 20 3 23 8 21 40 -2 35 -1 37 37 43 40 7 45 11
34 38 -4 11 -14 12 -45 7 -27 -5 -39 -4 -39 4 0 7 10 13 23 13 51 4 67 13 67
38 0 18 -5 23 -20 22 -12 -1 -22 -2 -24 -4z"/>
<path d="M1724 2501 c-43 -11 -54 -19 -69 -54 -34 -81 64 -159 158 -128 44 15
55 39 22 47 -13 3 -33 3 -45 -1 -28 -9 -78 12 -85 37 -16 49 57 65 107 23 35
-30 71 -34 61 -7 -14 38 -36 61 -74 76 -22 9 -40 16 -42 15 -1 -1 -16 -4 -33
-8z"/>
<path d="M952 2441 c-11 -7 -10 -16 7 -51 11 -24 19 -45 17 -47 -2 -2 -28 8
-57 22 -45 22 -59 25 -81 16 -16 -6 -28 -14 -28 -18 1 -15 77 -157 87 -160 5
-2 17 2 26 10 17 12 16 15 -7 60 l-25 47 37 -16 c85 -37 90 -38 116 -26 l26
12 -40 80 c-39 78 -51 89 -78 71z"/>
<path d="M1931 2373 c-45 -83 -40 -109 29 -152 68 -41 104 -22 155 78 17 33
17 35 -1 48 -10 7 -20 13 -23 13 -3 -1 -20 -24 -36 -53 -33 -57 -55 -63 -88
-25 -15 18 -16 23 -3 37 7 9 21 31 31 50 17 33 17 35 -1 48 -10 7 -21 13 -25
13 -4 0 -21 -26 -38 -57z"/>
<path d="M685 2268 c-70 -40 -96 -121 -54 -169 27 -32 101 -34 141 -4 36 27
62 86 54 121 -14 54 -89 82 -141 52z m78 -56 c21 -23 4 -61 -37 -81 -25 -12
-30 -11 -48 6 -16 17 -17 24 -7 45 19 44 66 59 92 30z"/>
<path d="M1398 2275 c-2 -1 -28 -5 -58 -8 -71 -7 -150 -27 -150 -39 0 -5 7 -5
18 1 22 12 122 30 184 33 25 2 44 5 42 7 -6 6 -31 10 -36 6z"/>
<path d="M1450 2271 c0 -4 6 -8 13 -8 68 -2 162 -16 205 -32 29 -11 56 -20 60
-21 87 -24 230 -117 308 -202 144 -155 217 -334 227 -555 1 -13 4 -23 8 -23 5
0 6 19 3 43 -2 23 -6 60 -8 82 -2 22 -6 47 -9 55 -3 8 -10 36 -16 62 -28 119
-113 261 -222 368 -120 119 -307 211 -459 225 -30 3 -67 8 -82 10 -16 3 -28 1
-28 -4z"/>
<path d="M2159 2236 c-11 -24 -2 -48 37 -103 13 -18 14 -23 3 -23 -22 0 -37
13 -48 42 -5 15 -19 32 -31 38 -19 10 -20 8 -20 -29 0 -32 6 -44 34 -69 46
-40 71 -47 101 -28 36 24 30 61 -18 113 -11 13 -18 26 -15 29 11 10 48 -16 48
-35 0 -10 8 -25 19 -35 14 -13 20 -14 29 -4 15 18 14 24 -3 57 -33 65 -115 93
-136 47z"/>
<path d="M1106 2205 c-228 -95 -421 -325 -476 -567 -17 -73 -28 -188 -18 -188
4 0 8 17 9 38 2 132 52 283 136 409 83 125 233 250 366 302 31 13 57 25 57 27
0 7 -15 3 -74 -21z"/>
<path d="M1295 2213 c-253 -43 -495 -243 -586 -483 -134 -352 -8 -744 303
-947 306 -199 713 -161 969 90 72 70 90 93 138 173 72 118 108 260 106 409 -5
284 -167 549 -415 679 -62 33 -160 68 -225 82 -59 12 -212 11 -290 -3z m275
-25 c225 -41 425 -184 535 -382 36 -65 76 -180 82 -238 l5 -48 -81 2 c-45 1
-84 -2 -88 -5 -6 -7 94 -11 145 -7 28 2 40 -25 23 -53 -10 -15 -10 -21 -1 -27
8 -5 10 -18 6 -34 -6 -26 -7 -26 -91 -23 -47 1 -85 -1 -85 -5 0 -8 32 -10 128
-10 40 0 42 -1 42 -30 0 -16 -14 -71 -31 -122 -83 -249 -283 -436 -539 -502
-97 -26 -273 -24 -373 4 -138 39 -267 117 -366 221 -38 40 -101 134 -101 151
0 5 -4 10 -8 10 -15 0 -70 160 -79 228 l-5 42 81 -2 c44 -1 84 2 88 5 7 8 -8
9 -98 8 -54 -1 -68 2 -73 15 -10 25 3 54 20 47 7 -3 14 0 14 6 0 6 -9 11 -20
11 -17 0 -20 5 -17 28 4 29 3 29 141 31 70 2 30 13 -51 14 l-78 2 -1 29 c-1
16 8 59 19 95 81 273 293 470 572 534 72 17 209 19 285 5z"/>
<path d="M1378 1805 c-1 -2 -18 -5 -36 -8 -46 -8 -133 -53 -154 -81 -31 -43
-33 -72 -4 -101 29 -29 41 -28 140 4 39 14 78 19 109 17 38 -3 49 -1 57 14 6
12 5 23 -5 36 -19 26 -144 26 -193 0 -45 -23 -52 -14 -10 12 51 32 106 41 162
27 65 -17 90 -43 77 -78 -6 -15 -15 -27 -21 -27 -24 0 -7 -18 27 -28 48 -15
65 0 69 61 4 73 -49 130 -132 143 -22 3 -49 7 -61 9 -12 2 -23 2 -25 0z"/>
<path d="M1635 1706 c-16 -12 -17 -18 -8 -39 9 -18 22 -27 51 -32 53 -9 106
-62 132 -132 11 -30 20 -60 20 -68 0 -23 27 -6 40 25 17 41 3 112 -32 160 -53
72 -160 117 -203 86z"/>
<path d="M1631 1614 c-43 -18 -48 -38 -17 -75 28 -32 33 -55 15 -61 -7 -2 -5
-21 6 -56 19 -56 15 -133 -6 -159 -18 -21 -4 -26 34 -14 53 18 75 81 55 161
-5 19 -10 42 -13 52 -2 9 -11 30 -19 47 -20 38 -5 41 19 4 23 -34 42 -109 41
-156 -1 -47 19 -46 50 1 30 43 25 104 -12 173 -43 78 -96 107 -153 83z"/>
<path d="M1315 1596 c-74 -18 -84 -18 -137 -4 -62 16 -74 13 -80 -16 -2 -13 8
-27 31 -43 48 -32 122 -34 221 -4 19 6 47 11 61 11 23 0 26 3 21 25 -2 14 1
31 7 38 16 20 -27 17 -124 -7z"/>
<path d="M1450 1581 c0 -5 5 -22 11 -38 6 -15 13 -39 15 -53 8 -42 13 -50 28
-44 36 14 54 -120 25 -183 -16 -35 -16 -38 -1 -44 28 -10 69 11 82 41 18 43
19 113 3 156 -25 68 -26 75 -13 72 21 -5 22 17 2 40 -33 38 -152 79 -152 53z"/>
<path d="M1076 1515 c-14 -56 45 -107 128 -108 22 0 71 6 107 13 36 7 77 10
91 7 31 -8 52 -52 45 -95 -6 -39 -10 -44 -70 -114 -39 -45 -50 -67 -54 -102
-5 -39 -2 -48 23 -73 l29 -28 5 41 c4 29 20 60 51 99 79 103 91 125 94 178 3
67 -3 86 -31 93 -13 3 -25 10 -25 15 -1 5 -3 14 -4 19 -1 6 -3 14 -4 19 0 5
-15 14 -31 21 -30 12 -55 11 -170 -8 -54 -9 -113 2 -150 28 l-28 20 -6 -25z"/>
<path d="M730 1442 c0 -5 29 -9 65 -8 36 0 65 3 65 7 0 3 -29 7 -65 8 -36 1
-65 -3 -65 -7z"/>
<path d="M2026 1441 c-3 -4 29 -7 70 -7 41 0 74 3 74 8 0 9 -138 9 -144 -1z"/>
<path d="M1057 1419 c-10 -37 9 -65 60 -89 40 -19 59 -22 115 -17 37 3 77 11
88 17 33 18 36 4 4 -17 -21 -13 -47 -18 -105 -18 -46 0 -76 -4 -74 -10 10 -45
48 -66 119 -64 121 2 206 98 148 168 -22 28 -61 29 -131 6 -64 -21 -125 -14
-176 21 -43 29 -41 29 -48 3z"/>
<path d="M524 1894 c-40 -27 -55 -45 -65 -79 -9 -31 0 -44 24 -36 38 11 64 35
81 75 30 72 21 81 -40 40z"/>
<path d="M2303 1903 c10 -58 33 -94 71 -113 47 -23 54 -20 48 18 -5 36 -36 74
-79 96 -40 20 -44 20 -40 -1z"/>
<path d="M396 1830 c-16 -41 -14 -104 5 -115 4 -3 16 6 25 20 12 19 15 37 10
72 -9 65 -20 72 -40 23z"/>
<path d="M2457 1862 c-26 -40 -13 -142 17 -142 26 0 31 67 9 113 -11 24 -22
36 -26 29z"/>
<path d="M473 1745 c-46 -20 -72 -75 -35 -75 29 0 62 23 84 58 19 30 19 32 1
32 -10 -1 -32 -7 -50 -15z"/>
<path d="M2356 1731 c19 -33 60 -61 88 -61 53 0 -8 77 -68 87 l-39 6 19 -32z"/>
<path d="M325 1700 c-7 -44 0 -76 23 -103 20 -22 32 -6 32 43 0 30 -31 100
-44 100 -2 0 -7 -18 -11 -40z"/>
<path d="M2521 1702 c-22 -43 -27 -87 -12 -110 16 -26 52 36 50 85 -4 65 -14
72 -38 25z"/>
<path d="M2404 1636 c6 -35 23 -63 48 -80 31 -22 48 -20 48 5 0 34 -18 58 -61
79 l-40 21 5 -25z"/>
<path d="M436 1635 c-37 -19 -55 -44 -56 -72 0 -27 12 -29 46 -7 35 23 70 94
47 94 -5 0 -21 -7 -37 -15z"/>
<path d="M2569 1584 c-28 -33 -48 -79 -45 -108 4 -37 13 -42 36 -21 22 20 33
65 28 114 -3 32 -4 33 -19 15z"/>
<path d="M290 1553 c0 -46 28 -107 52 -111 36 -7 -1 133 -40 146 -8 2 -12 -9
-12 -35z"/>
<path d="M401 1505 c-24 -27 -31 -45 -31 -76 0 -36 2 -39 20 -29 25 13 42 44
50 93 10 50 -2 54 -39 12z"/>
<path d="M2438 1529 c-7 -21 11 -92 29 -111 31 -35 47 -23 43 32 -2 30 -65 99
-72 79z"/>
<path d="M285 1405 c8 -57 15 -73 44 -99 19 -17 21 -18 27 -2 11 28 -13 90
-47 121 l-31 30 7 -50z"/>
<path d="M613 1400 c0 -25 2 -35 4 -22 2 12 2 32 0 45 -2 12 -4 2 -4 -23z"/>
<path d="M2550 1398 c-29 -40 -40 -91 -21 -102 9 -6 61 47 61 62 1 4 3 24 6
45 7 49 -8 48 -46 -5z"/>
<path d="M2259 1380 c-6 -45 -4 -58 7 -48 3 3 4 26 2 49 l-3 44 -6 -45z"/>
<path d="M417 1387 c-10 -15 -22 -38 -27 -52 -12 -30 -2 -85 15 -85 26 0 47
78 36 135 l-6 29 -18 -27z"/>
<path d="M2439 1375 c-1 -14 -2 -31 -2 -37 -4 -53 35 -108 54 -77 11 19 2 86
-17 114 -21 32 -34 32 -35 0z"/>
<path d="M613 1323 c8 -47 26 -120 36 -145 46 -119 82 -185 141 -258 113 -141
257 -234 440 -284 102 -28 120 -31 120 -18 0 4 -16 9 -35 10 -49 4 -159 38
-235 75 -164 79 -314 231 -385 391 -31 71 -64 179 -67 221 -1 19 -6 35 -11 35
-4 0 -6 -12 -4 -27z"/>
<path d="M2246 1279 c-10 -60 -51 -174 -87 -238 -108 -191 -285 -331 -497
-392 -37 -10 -77 -19 -89 -19 -13 0 -23 -5 -23 -11 0 -6 8 -8 18 -5 9 3 39 10
67 16 91 20 273 104 283 131 2 5 8 9 14 9 10 0 17 6 93 77 109 102 191 250
228 412 8 34 11 61 7 61 -4 0 -10 -18 -14 -41z"/>
<path d="M305 1258 c16 -52 37 -85 64 -101 37 -22 40 -22 37 6 -4 33 -22 62
-57 91 -38 32 -53 33 -44 4z"/>
<path d="M2532 1254 c-31 -25 -49 -54 -57 -96 -5 -22 0 -22 36 -1 16 9 38 36
49 60 33 70 26 79 -28 37z"/>
<path d="M440 1246 c-21 -55 -9 -136 20 -136 25 0 29 95 5 139 l-13 26 -12
-29z"/>
<path d="M2415 1248 c-19 -61 -21 -75 -12 -110 18 -71 61 10 45 85 -11 51 -22
60 -33 25z"/>
<path d="M499 1138 c-5 -73 -4 -91 9 -118 17 -35 41 -40 43 -7 3 48 -1 70 -21
103 -23 37 -29 41 -31 22z"/>
<path d="M2358 1128 c-24 -37 -36 -83 -31 -111 13 -69 68 13 58 86 -8 52 -9
53 -27 25z"/>
<path d="M350 1125 c0 -35 77 -115 111 -115 44 0 2 68 -62 100 -40 21 -49 24
-49 15z"/>
<path d="M2484 1111 c-42 -19 -84 -63 -84 -87 0 -41 95 17 126 77 17 34 13 35
-42 10z"/>
<path d="M580 992 c0 -56 23 -112 47 -112 8 0 13 13 13 34 0 41 -11 72 -39
106 l-21 25 0 -53z"/>
<path d="M2262 991 c-40 -71 -20 -151 21 -87 19 28 27 118 11 123 -5 2 -20
-14 -32 -36z"/>
<path d="M430 978 c0 -16 44 -59 78 -77 26 -14 72 -14 72 0 0 17 -60 67 -89
72 -14 3 -34 9 -43 12 -12 5 -18 2 -18 -7z"/>
<path d="M2435 983 c-59 -12 -102 -35 -118 -63 l-18 -30 26 0 c31 0 61 14 93
44 20 17 49 59 40 55 -2 -1 -12 -3 -23 -6z"/>
<path d="M655 750 c-22 -22 -34 -40 -27 -40 13 0 82 62 82 74 0 14 -17 3 -55
-34z"/>
<path d="M2138 743 c-26 -31 -30 -44 -18 -58 11 -13 18 -12 51 7 21 12 42 19
45 15 13 -12 -6 -38 -38 -52 -32 -14 -32 -14 -7 -15 25 0 69 36 69 57 0 6 -7
16 -15 23 -13 11 -21 9 -45 -8 -33 -24 -50 -28 -50 -10 0 19 31 47 46 41 8 -3
14 0 14 6 0 17 -35 13 -52 -6z"/>
<path d="M693 713 c-39 -46 -34 -57 7 -18 33 31 33 31 30 -36 -1 -26 3 -49 8
-53 5 -3 25 13 45 34 20 22 32 42 27 45 -4 3 -20 -9 -34 -26 -27 -32 -28 -31
-28 44 0 57 -12 59 -55 10z"/>
<path d="M2045 659 c-11 -4 -30 -16 -43 -26 l-22 -18 31 -43 c17 -23 37 -42
44 -42 20 0 65 59 65 86 0 29 -45 56 -75 43z m49 -22 c17 -12 17 -17 5 -42
-24 -48 -43 -53 -73 -19 l-26 29 26 23 c29 25 43 27 68 9z"/>
<path d="M824 635 c-3 -8 6 -29 20 -46 30 -36 26 -53 -9 -37 -23 10 -29 20
-26 41 0 4 -3 7 -9 7 -5 0 -10 -8 -10 -19 0 -21 40 -51 69 -51 31 0 31 25 0
63 -19 23 -25 36 -16 40 20 7 38 -4 49 -32 10 -23 12 -24 16 -7 8 37 -71 76
-84 41z"/>
<path d="M1493 623 c-24 -2 -43 -7 -43 -11 0 -4 20 -6 45 -4 25 2 45 8 45 13
0 5 -1 8 -2 7 -2 -1 -22 -3 -45 -5z"/>
<path d="M1378 613 c12 -2 32 -2 45 0 12 2 2 4 -23 4 -25 0 -35 -2 -22 -4z"/>
<path d="M924 548 c-10 -24 -20 -46 -22 -50 -2 -5 1 -8 7 -8 6 0 11 7 11 16 0
11 6 14 23 9 12 -4 26 -11 31 -15 13 -13 56 11 56 31 0 19 -29 42 -66 53 -16
5 -24 -2 -40 -36z m61 10 c25 -11 33 -32 15 -43 -8 -5 -42 7 -58 20 -3 3 9 35
14 35 2 0 15 -5 29 -12z"/>
<path d="M1899 568 c0 -7 -1 -35 -2 -61 -2 -27 1 -51 5 -53 5 -3 8 1 8 8 0 21
57 50 83 43 22 -7 22 -7 2 12 -35 34 -95 66 -96 51z m47 -33 c13 -12 12 -15
-5 -25 -28 -14 -31 -13 -29 15 3 28 13 32 34 10z"/>
<path d="M1046 489 c-18 -49 -15 -84 3 -38 5 13 14 36 20 51 5 15 7 29 2 32
-4 3 -16 -18 -25 -45z"/>
<path d="M1788 524 l-36 -15 15 -45 c8 -24 19 -47 24 -50 13 -7 79 15 79 27 0
5 -15 3 -34 -5 -31 -13 -35 -13 -41 2 -6 16 10 32 33 32 6 0 12 4 12 10 0 6
-9 6 -24 0 -18 -6 -28 -5 -36 5 -9 11 -4 17 24 30 58 28 46 34 -16 9z"/>
<path d="M1089 460 c-8 -28 -12 -50 -8 -50 4 0 9 7 13 15 10 27 46 18 60 -15
12 -29 30 -33 19 -4 -3 8 2 23 10 32 21 23 12 58 -16 66 -51 14 -61 8 -78 -44z
m65 30 c36 -13 34 -40 -3 -40 -33 0 -44 11 -35 34 7 19 6 19 38 6z"/>
<path d="M1714 478 c5 -23 2 -27 -26 -37 -42 -15 -48 -14 -48 8 0 11 -5 23
-11 27 -11 7 -7 -39 7 -88 8 -27 22 -22 17 6 -4 19 0 24 27 30 48 9 50 8 50
-21 0 -20 3 -24 9 -15 9 15 -6 91 -22 107 -6 7 -7 1 -3 -17z"/>
<path d="M1225 443 c-4 -21 -9 -46 -12 -55 -2 -10 0 -18 5 -18 5 0 13 17 16
38 4 20 9 45 12 55 3 9 1 17 -5 17 -5 0 -13 -17 -16 -37z"/>
<path d="M1276 449 c-8 -43 -8 -94 2 -85 4 4 8 16 8 27 3 44 4 49 14 49 6 0
10 -6 10 -12 1 -15 58 -84 64 -77 11 11 17 109 7 109 -6 0 -11 -16 -11 -35 0
-19 -4 -35 -10 -35 -5 0 -23 20 -40 45 -17 25 -32 45 -34 45 -2 0 -6 -14 -10
-31z"/>
<path d="M1434 448 c-13 -11 -24 -30 -24 -42 0 -53 81 -76 120 -34 29 31 25
38 -17 37 -37 -1 -37 -2 -8 -8 l30 -7 -27 -18 c-48 -32 -103 8 -72 52 16 23
68 31 79 12 8 -13 25 -13 25 -1 0 10 -32 23 -63 26 -10 1 -29 -7 -43 -17z"/>
<path d="M1840 2730 c0 -5 5 -10 11 -10 5 0 7 5 4 10 -3 6 -8 10 -11 10 -2 0
-4 -4 -4 -10z"/>
<path d="M975 2710 c3 -5 8 -10 11 -10 2 0 4 5 4 10 0 6 -5 10 -11 10 -5 0 -7
-4 -4 -10z"/>
<path d="M1895 2710 c-3 -5 -1 -10 4 -10 6 0 11 5 11 10 0 6 -2 10 -4 10 -3 0
-8 -4 -11 -10z"/>
<path d="M925 2690 c3 -5 8 -10 11 -10 2 0 4 5 4 10 0 6 -5 10 -11 10 -5 0 -7
-4 -4 -10z"/>
<path d="M1945 2690 c3 -5 11 -10 16 -10 6 0 7 5 4 10 -3 6 -11 10 -16 10 -6
0 -7 -4 -4 -10z"/>
<path d="M870 2670 c0 -5 5 -10 10 -10 6 0 10 5 10 10 0 6 -4 10 -10 10 -5 0
-10 -4 -10 -10z"/>
<path d="M1995 2670 c-3 -5 1 -10 10 -10 9 0 13 5 10 10 -3 6 -8 10 -10 10 -2
0 -7 -4 -10 -10z"/>
<path d="M820 2650 c0 -5 5 -10 11 -10 5 0 7 5 4 10 -3 6 -8 10 -11 10 -2 0
-4 -4 -4 -10z"/>
<path d="M2045 2651 c-3 -5 -1 -12 5 -16 5 -3 10 1 10 9 0 18 -6 21 -15 7z"/>
<path d="M770 2620 c0 -5 5 -10 10 -10 6 0 10 5 10 10 0 6 -4 10 -10 10 -5 0
-10 -4 -10 -10z"/>
<path d="M2090 2620 c0 -5 5 -10 10 -10 6 0 10 5 10 10 0 6 -4 10 -10 10 -5 0
-10 -4 -10 -10z"/>
<path d="M725 2590 c3 -5 8 -10 11 -10 2 0 4 5 4 10 0 6 -5 10 -11 10 -5 0 -7
-4 -4 -10z"/>
<path d="M2140 2590 c0 -5 5 -10 11 -10 5 0 7 5 4 10 -3 6 -8 10 -11 10 -2 0
-4 -4 -4 -10z"/>
<path d="M680 2559 c0 -5 5 -7 10 -4 6 3 10 8 10 11 0 2 -4 4 -10 4 -5 0 -10
-5 -10 -11z"/>
<path d="M2190 2560 c0 -5 5 -10 10 -10 6 0 10 5 10 10 0 6 -4 10 -10 10 -5 0
-10 -4 -10 -10z"/>
<path d="M635 2530 c3 -5 8 -10 11 -10 2 0 4 5 4 10 0 6 -5 10 -11 10 -5 0 -7
-4 -4 -10z"/>
<path d="M2230 2530 c0 -5 5 -10 10 -10 6 0 10 5 10 10 0 6 -4 10 -10 10 -5 0
-10 -4 -10 -10z"/>
<path d="M590 2500 c0 -5 5 -10 10 -10 6 0 10 5 10 10 0 6 -4 10 -10 10 -5 0
-10 -4 -10 -10z"/>
<path d="M2280 2489 c0 -5 5 -7 10 -4 6 3 10 8 10 11 0 2 -4 4 -10 4 -5 0 -10
-5 -10 -11z"/>
<path d="M550 2459 c0 -5 5 -7 10 -4 6 3 10 8 10 11 0 2 -4 4 -10 4 -5 0 -10
-5 -10 -11z"/>
<path d="M2320 2460 c0 -5 5 -10 10 -10 6 0 10 5 10 10 0 6 -4 10 -10 10 -5 0
-10 -4 -10 -10z"/>
<path d="M510 2430 c0 -5 5 -10 11 -10 5 0 7 5 4 10 -3 6 -8 10 -11 10 -2 0
-4 -4 -4 -10z"/>
<path d="M2360 2419 c0 -5 5 -7 10 -4 6 3 10 8 10 11 0 2 -4 4 -10 4 -5 0 -10
-5 -10 -11z"/>
<path d="M465 2390 c-3 -5 1 -10 9 -10 9 0 16 5 16 10 0 6 -4 10 -9 10 -6 0
-13 -4 -16 -10z"/>
<path d="M2400 2391 c0 -6 4 -13 10 -16 6 -3 7 1 4 9 -7 18 -14 21 -14 7z"/>
<path d="M430 2350 c0 -5 5 -10 10 -10 6 0 10 5 10 10 0 6 -4 10 -10 10 -5 0
-10 -4 -10 -10z"/>
<path d="M2440 2344 c0 -8 5 -12 10 -9 6 4 8 11 5 16 -9 14 -15 11 -15 -7z"/>
<path d="M395 2310 c-3 -5 -1 -10 4 -10 6 0 11 5 11 10 0 6 -2 10 -4 10 -3 0
-8 -4 -11 -10z"/>
<path d="M2470 2300 c0 -5 5 -10 10 -10 6 0 10 5 10 10 0 6 -4 10 -10 10 -5 0
-10 -4 -10 -10z"/>
<path d="M360 2259 c0 -5 5 -7 10 -4 6 3 10 8 10 11 0 2 -4 4 -10 4 -5 0 -10
-5 -10 -11z"/>
<path d="M2510 2260 c0 -5 5 -10 11 -10 5 0 7 5 4 10 -3 6 -8 10 -11 10 -2 0
-4 -4 -4 -10z"/>
<path d="M325 2220 c-3 -5 -2 -10 4 -10 5 0 13 5 16 10 3 6 2 10 -4 10 -5 0
-13 -4 -16 -10z"/>
<path d="M2540 2220 c0 -5 5 -10 11 -10 5 0 7 5 4 10 -3 6 -8 10 -11 10 -2 0
-4 -4 -4 -10z"/>
<path d="M301 2174 c0 -11 3 -14 6 -6 3 7 2 16 -1 19 -3 4 -6 -2 -5 -13z"/>
<path d="M2570 2169 c0 -5 5 -7 10 -4 6 3 10 8 10 11 0 2 -4 4 -10 4 -5 0 -10
-5 -10 -11z"/>
<path d="M270 2130 c0 -5 5 -10 11 -10 5 0 7 5 4 10 -3 6 -8 10 -11 10 -2 0
-4 -4 -4 -10z"/>
<path d="M2605 2120 c3 -5 8 -10 11 -10 2 0 4 5 4 10 0 6 -5 10 -11 10 -5 0
-7 -4 -4 -10z"/>
<path d="M240 2080 c0 -5 5 -10 10 -10 6 0 10 5 10 10 0 6 -4 10 -10 10 -5 0
-10 -4 -10 -10z"/>
<path d="M2630 2074 c0 -8 5 -12 10 -9 6 4 8 11 5 16 -9 14 -15 11 -15 -7z"/>
<path d="M215 2030 c-3 -5 -1 -10 4 -10 6 0 11 5 11 10 0 6 -2 10 -4 10 -3 0
-8 -4 -11 -10z"/>
<path d="M2650 2031 c0 -5 5 -13 10 -16 6 -3 10 -2 10 4 0 5 -4 13 -10 16 -5
3 -10 2 -10 -4z"/>
<path d="M190 1980 c0 -5 5 -10 10 -10 6 0 10 5 10 10 0 6 -4 10 -10 10 -5 0
-10 -4 -10 -10z"/>
<path d="M2675 1980 c-3 -5 -1 -10 4 -10 6 0 11 5 11 10 0 6 -2 10 -4 10 -3 0
-8 -4 -11 -10z"/>
<path d="M175 1930 c-3 -5 -1 -10 4 -10 6 0 11 5 11 10 0 6 -2 10 -4 10 -3 0
-8 -4 -11 -10z"/>
<path d="M2695 1931 c-3 -5 -1 -12 5 -16 5 -3 10 1 10 9 0 18 -6 21 -15 7z"/>
<path d="M155 1880 c-3 -5 -1 -10 4 -10 6 0 11 5 11 10 0 6 -2 10 -4 10 -3 0
-8 -4 -11 -10z"/>
<path d="M2710 1870 c0 -5 5 -10 10 -10 6 0 10 5 10 10 0 6 -4 10 -10 10 -5 0
-10 -4 -10 -10z"/>
<path d="M135 1820 c3 -5 8 -10 11 -10 2 0 4 5 4 10 0 6 -5 10 -11 10 -5 0 -7
-4 -4 -10z"/>
<path d="M2730 1819 c0 -5 5 -7 10 -4 6 3 10 8 10 11 0 2 -4 4 -10 4 -5 0 -10
-5 -10 -11z"/>
<path d="M120 1770 c0 -5 5 -10 10 -10 6 0 10 5 10 10 0 6 -4 10 -10 10 -5 0
-10 -4 -10 -10z"/>
<path d="M2745 1770 c-3 -5 -1 -10 4 -10 6 0 11 5 11 10 0 6 -2 10 -4 10 -3 0
-8 -4 -11 -10z"/>
<path d="M110 1714 c0 -8 5 -12 10 -9 6 4 8 11 5 16 -9 14 -15 11 -15 -7z"/>
<path d="M2755 1710 c4 -6 11 -8 16 -5 14 9 11 15 -7 15 -8 0 -12 -5 -9 -10z"/>
<path d="M100 1670 c0 -5 5 -10 11 -10 5 0 7 5 4 10 -3 6 -8 10 -11 10 -2 0
-4 -4 -4 -10z"/>
<path d="M2770 1660 c0 -5 5 -10 11 -10 5 0 7 5 4 10 -3 6 -8 10 -11 10 -2 0
-4 -4 -4 -10z"/>
<path d="M90 1610 c0 -5 5 -10 10 -10 6 0 10 5 10 10 0 6 -4 10 -10 10 -5 0
-10 -4 -10 -10z"/>
<path d="M2775 1611 c-3 -5 -1 -12 5 -16 5 -3 10 1 10 9 0 18 -6 21 -15 7z"/>
<path d="M85 1550 c3 -5 8 -10 11 -10 2 0 4 5 4 10 0 6 -5 10 -11 10 -5 0 -7
-4 -4 -10z"/>
<path d="M2780 1550 c0 -5 5 -10 10 -10 6 0 10 5 10 10 0 6 -4 10 -10 10 -5 0
-10 -4 -10 -10z"/>
<path d="M80 1500 c0 -5 5 -10 10 -10 6 0 10 5 10 10 0 6 -4 10 -10 10 -5 0
-10 -4 -10 -10z"/>
<path d="M2786 1497 c3 -10 9 -15 12 -12 3 3 0 11 -7 18 -10 9 -11 8 -5 -6z"/>
<path d="M80 1439 c0 -5 5 -7 10 -4 6 3 10 8 10 11 0 2 -4 4 -10 4 -5 0 -10
-5 -10 -11z"/>
<path d="M2780 1440 c0 -5 5 -10 10 -10 6 0 10 5 10 10 0 6 -4 10 -10 10 -5 0
-10 -4 -10 -10z"/>
<path d="M85 1390 c-3 -5 -1 -10 4 -10 6 0 11 5 11 10 0 6 -2 10 -4 10 -3 0
-8 -4 -11 -10z"/>
<path d="M2785 1380 c3 -5 8 -10 11 -10 2 0 4 5 4 10 0 6 -5 10 -11 10 -5 0
-7 -4 -4 -10z"/>
<path d="M85 1330 c3 -5 8 -10 11 -10 2 0 4 5 4 10 0 6 -5 10 -11 10 -5 0 -7
-4 -4 -10z"/>
<path d="M2780 1330 c0 -5 5 -10 11 -10 5 0 7 5 4 10 -3 6 -8 10 -11 10 -2 0
-4 -4 -4 -10z"/>
<path d="M90 1280 c0 -5 5 -10 11 -10 5 0 7 5 4 10 -3 6 -8 10 -11 10 -2 0 -4
-4 -4 -10z"/>
<path d="M2775 1281 c-3 -5 -1 -12 5 -16 5 -3 10 1 10 9 0 18 -6 21 -15 7z"/>
<path d="M100 1224 c0 -8 5 -12 10 -9 6 4 8 11 5 16 -9 14 -15 11 -15 -7z"/>
<path d="M2771 1214 c0 -11 3 -14 6 -6 3 7 2 16 -1 19 -3 4 -6 -2 -5 -13z"/>
<path d="M110 1170 c0 -5 5 -10 11 -10 5 0 7 5 4 10 -3 6 -8 10 -11 10 -2 0
-4 -4 -4 -10z"/>
<path d="M2755 1171 c-3 -5 -1 -12 5 -16 5 -3 10 1 10 9 0 18 -6 21 -15 7z"/>
<path d="M120 1114 c0 -8 5 -12 10 -9 6 4 8 11 5 16 -9 14 -15 11 -15 -7z"/>
<path d="M2745 1110 c3 -5 8 -10 11 -10 2 0 4 5 4 10 0 6 -5 10 -11 10 -5 0
-7 -4 -4 -10z"/>
<path d="M135 1060 c3 -5 8 -10 11 -10 2 0 4 5 4 10 0 6 -5 10 -11 10 -5 0 -7
-4 -4 -10z"/>
<path d="M2730 1054 c0 -8 5 -12 10 -9 6 4 8 11 5 16 -9 14 -15 11 -15 -7z"/>
<path d="M150 1010 c0 -5 5 -10 10 -10 6 0 10 5 10 10 0 6 -4 10 -10 10 -5 0
-10 -4 -10 -10z"/>
<path d="M2710 1000 c0 -5 5 -10 10 -10 6 0 10 5 10 10 0 6 -4 10 -10 10 -5 0
-10 -4 -10 -10z"/>
<path d="M170 960 c0 -5 5 -10 11 -10 5 0 7 5 4 10 -3 6 -8 10 -11 10 -2 0 -4
-4 -4 -10z"/>
<path d="M2690 949 c0 -5 5 -7 10 -4 6 3 10 8 10 11 0 2 -4 4 -10 4 -5 0 -10
-5 -10 -11z"/>
<path d="M190 910 c0 -5 5 -10 11 -10 5 0 7 5 4 10 -3 6 -8 10 -11 10 -2 0 -4
-4 -4 -10z"/>
<path d="M2670 900 c0 -5 5 -10 10 -10 6 0 10 5 10 10 0 6 -4 10 -10 10 -5 0
-10 -4 -10 -10z"/>
<path d="M210 861 c0 -6 5 -13 10 -16 6 -3 10 1 10 9 0 9 -4 16 -10 16 -5 0
-10 -4 -10 -9z"/>
<path d="M2650 850 c0 -5 5 -10 11 -10 5 0 7 5 4 10 -3 6 -8 10 -11 10 -2 0
-4 -4 -4 -10z"/>
<path d="M235 810 c-3 -5 -1 -10 4 -10 6 0 11 5 11 10 0 6 -2 10 -4 10 -3 0
-8 -4 -11 -10z"/>
<path d="M2620 800 c0 -5 5 -10 10 -10 6 0 10 5 10 10 0 6 -4 10 -10 10 -5 0
-10 -4 -10 -10z"/>
<path d="M260 760 c0 -5 5 -10 10 -10 6 0 10 5 10 10 0 6 -4 10 -10 10 -5 0
-10 -4 -10 -10z"/>
<path d="M2595 750 c3 -5 8 -10 11 -10 2 0 4 5 4 10 0 6 -5 10 -11 10 -5 0 -7
-4 -4 -10z"/>
<path d="M295 710 c3 -5 8 -10 11 -10 2 0 4 5 4 10 0 6 -5 10 -11 10 -5 0 -7
-4 -4 -10z"/>
<path d="M2570 704 c0 -8 5 -12 10 -9 6 4 8 11 5 16 -9 14 -15 11 -15 -7z"/>
<path d="M325 671 c-3 -5 -1 -12 5 -16 5 -3 10 1 10 9 0 18 -6 21 -15 7z"/>
<path d="M2535 660 c-3 -5 -2 -10 4 -10 5 0 13 5 16 10 3 6 2 10 -4 10 -5 0
-13 -4 -16 -10z"/>
<path d="M355 620 c3 -5 8 -10 11 -10 2 0 4 5 4 10 0 6 -5 10 -11 10 -5 0 -7
-4 -4 -10z"/>
<path d="M2505 620 c-3 -5 -1 -10 4 -10 6 0 11 5 11 10 0 6 -2 10 -4 10 -3 0
-8 -4 -11 -10z"/>
<path d="M390 580 c0 -5 5 -10 10 -10 6 0 10 5 10 10 0 6 -4 10 -10 10 -5 0
-10 -4 -10 -10z"/>
<path d="M2470 569 c0 -5 5 -7 10 -4 6 3 10 8 10 11 0 2 -4 4 -10 4 -5 0 -10
-5 -10 -11z"/>
<path d="M2430 530 c0 -5 5 -10 10 -10 6 0 10 5 10 10 0 6 -4 10 -10 10 -5 0
-10 -4 -10 -10z"/>
<path d="M465 500 c-3 -5 -1 -10 4 -10 6 0 11 5 11 10 0 6 -2 10 -4 10 -3 0
-8 -4 -11 -10z"/>
<path d="M2395 490 c-3 -5 -1 -10 4 -10 6 0 11 5 11 10 0 6 -2 10 -4 10 -3 0
-8 -4 -11 -10z"/>
<path d="M505 460 c-3 -5 -1 -10 4 -10 6 0 11 5 11 10 0 6 -2 10 -4 10 -3 0
-8 -4 -11 -10z"/>
<path d="M2355 450 c4 -6 11 -8 16 -5 14 9 11 15 -7 15 -8 0 -12 -5 -9 -10z"/>
<path d="M545 420 c3 -5 8 -10 11 -10 2 0 4 5 4 10 0 6 -5 10 -11 10 -5 0 -7
-4 -4 -10z"/>
<path d="M2317 423 c-4 -3 -7 -11 -7 -17 0 -6 5 -5 12 2 6 6 9 14 7 17 -3 3
-9 2 -12 -2z"/>
<path d="M585 390 c-3 -5 -1 -10 4 -10 6 0 11 5 11 10 0 6 -2 10 -4 10 -3 0
-8 -4 -11 -10z"/>
<path d="M2270 380 c0 -5 5 -10 10 -10 6 0 10 5 10 10 0 6 -4 10 -10 10 -5 0
-10 -4 -10 -10z"/>
<path d="M630 350 c0 -5 5 -10 10 -10 6 0 10 5 10 10 0 6 -4 10 -10 10 -5 0
-10 -4 -10 -10z"/>
<path d="M2225 350 c-3 -5 1 -10 10 -10 9 0 13 5 10 10 -3 6 -8 10 -10 10 -2
0 -7 -4 -10 -10z"/>
<path d="M675 320 c3 -5 8 -10 11 -10 2 0 4 5 4 10 0 6 -5 10 -11 10 -5 0 -7
-4 -4 -10z"/>
<path d="M2187 323 c-4 -3 -7 -11 -7 -17 0 -6 5 -5 12 2 6 6 9 14 7 17 -3 3
-9 2 -12 -2z"/>
<path d="M720 290 c0 -5 5 -10 10 -10 6 0 10 5 10 10 0 6 -4 10 -10 10 -5 0
-10 -4 -10 -10z"/>
<path d="M2140 290 c0 -5 5 -10 11 -10 5 0 7 5 4 10 -3 6 -8 10 -11 10 -2 0
-4 -4 -4 -10z"/>
<path d="M765 260 c4 -6 11 -8 16 -5 14 9 11 15 -7 15 -8 0 -12 -5 -9 -10z"/>
<path d="M2090 260 c0 -5 5 -10 10 -10 6 0 10 5 10 10 0 6 -4 10 -10 10 -5 0
-10 -4 -10 -10z"/>
<path d="M820 240 c0 -5 5 -10 11 -10 5 0 7 5 4 10 -3 6 -8 10 -11 10 -2 0 -4
-4 -4 -10z"/>
<path d="M2040 229 c0 -5 5 -7 10 -4 6 3 10 8 10 11 0 2 -4 4 -10 4 -5 0 -10
-5 -10 -11z"/>
<path d="M865 210 c4 -6 11 -8 16 -5 14 9 11 15 -7 15 -8 0 -12 -5 -9 -10z"/>
<path d="M1990 210 c0 -5 5 -10 10 -10 6 0 10 5 10 10 0 6 -4 10 -10 10 -5 0
-10 -4 -10 -10z"/>
<path d="M915 190 c-3 -5 1 -10 10 -10 9 0 13 5 10 10 -3 6 -8 10 -10 10 -2 0
-7 -4 -10 -10z"/>
<path d="M1940 190 c0 -5 5 -10 11 -10 5 0 7 5 4 10 -3 6 -8 10 -11 10 -2 0
-4 -4 -4 -10z"/>
<path d="M970 170 c0 -5 5 -10 10 -10 6 0 10 5 10 10 0 6 -4 10 -10 10 -5 0
-10 -4 -10 -10z"/>
<path d="M1890 170 c0 -5 5 -10 10 -10 6 0 10 5 10 10 0 6 -4 10 -10 10 -5 0
-10 -4 -10 -10z"/>
<path d="M1025 150 c3 -5 8 -10 11 -10 2 0 4 5 4 10 0 6 -5 10 -11 10 -5 0 -7
-4 -4 -10z"/>
<path d="M1835 150 c-3 -5 -1 -10 4 -10 6 0 11 5 11 10 0 6 -2 10 -4 10 -3 0
-8 -4 -11 -10z"/>
<path d="M1070 140 c0 -5 5 -10 10 -10 6 0 10 5 10 10 0 6 -4 10 -10 10 -5 0
-10 -4 -10 -10z"/>
<path d="M1785 140 c-3 -5 -1 -10 4 -10 6 0 11 5 11 10 0 6 -2 10 -4 10 -3 0
-8 -4 -11 -10z"/>
<path d="M1130 119 c0 -5 5 -7 10 -4 6 3 10 8 10 11 0 2 -4 4 -10 4 -5 0 -10
-5 -10 -11z"/>
<path d="M1730 119 c0 -5 5 -7 10 -4 6 3 10 8 10 11 0 2 -4 4 -10 4 -5 0 -10
-5 -10 -11z"/>
<path d="M1185 110 c3 -5 8 -10 11 -10 2 0 4 5 4 10 0 6 -5 10 -11 10 -5 0 -7
-4 -4 -10z"/>
<path d="M1670 110 c0 -5 5 -10 10 -10 6 0 10 5 10 10 0 6 -4 10 -10 10 -5 0
-10 -4 -10 -10z"/>
<path d="M1235 100 c4 -6 11 -8 16 -5 14 9 11 15 -7 15 -8 0 -12 -5 -9 -10z"/>
<path d="M1290 100 c-13 -8 -12 -10 3 -10 9 0 17 5 17 10 0 12 -1 12 -20 0z"/>
<path d="M1620 99 c0 -5 5 -7 10 -4 6 3 10 8 10 11 0 2 -4 4 -10 4 -5 0 -10
-5 -10 -11z"/>
<path d="M1345 90 c3 -5 11 -10 16 -10 6 0 7 5 4 10 -3 6 -11 10 -16 10 -6 0
-7 -4 -4 -10z"/>
<path d="M1400 90 c0 -5 5 -10 11 -10 5 0 7 5 4 10 -3 6 -8 10 -11 10 -2 0 -4
-4 -4 -10z"/>
<path d="M1460 90 c0 -5 5 -10 11 -10 5 0 7 5 4 10 -3 6 -8 10 -11 10 -2 0 -4
-4 -4 -10z"/>
<path d="M1515 90 c3 -5 8 -10 11 -10 2 0 4 5 4 10 0 6 -5 10 -11 10 -5 0 -7
-4 -4 -10z"/>
<path d="M1568 93 c7 -3 16 -2 19 1 4 3 -2 6 -13 5 -11 0 -14 -3 -6 -6z"/>
</g>
</svg>
